<?xml version="1.0" standalone="no"?><!DOCTYPE svg PUBLIC "-//W3C//DTD SVG 1.1//EN" "http://www.w3.org/Graphics/SVG/1.1/DTD/svg11.dtd"><svg class="icon" width="200px" height="200.00px" viewBox="0 0 1024 1024" version="1.1" xmlns="http://www.w3.org/2000/svg"><path d="M380.385349 830.201684 392.79382 612.872743C393.366055 602.662861 396.558526 592.754155 402.039938 584.11039 440.590526 523.122155 602.593349 267.092037 669.996643 160.535802 686.742055 134.06239 720.98582 124.84639 748.754291 139.363096 806.399467 169.420508 901.872408 219.235096 963.101585 251.18992 978.039938 258.99039 989.032879 272.69392 993.399938 288.957449 997.797114 305.220978 995.146761 322.568743 986.141585 336.81439 916.961349 446.171567 765.830996 685.034626 725.352879 749.034626 718.757114 759.455331 709.089349 767.617214 697.674761 772.375802 646.625349 793.729214 500.765585 860.259096 422.007938 890.436978 415.773585 892.816273 58.638526 890.436978 58.638526 890.436978 42.013585 890.436978 28.520879 876.944273 28.520879 860.319331 28.520879 843.69439 42.013585 830.201684 58.638526 830.201684L380.385349 830.201684ZM592.082291 389.55039 447.57782 615.131567C444.776879 619.498626 443.150526 624.528273 442.879467 629.738626 441.524173 654.64592 437.277585 732.740978 434.416408 785.145684 433.844173 795.716978 438.843702 805.776273 447.607938 811.709449 456.372173 817.642626 467.485585 818.335331 477.153349 814.118861 540.279938 786.531096 635.662526 740.631802 664.424879 727.289684 669.695467 724.850155 674.122761 720.964978 677.224879 716.08592 706.228173 670.216743 873.802761 423.673684 926.418291 340.518861 930.935938 333.380978 932.261114 324.646861 930.032408 316.484978 927.803702 308.323096 922.231938 301.48639 914.702526 297.601214 871.031938 275.25392 776.191467 236.703331 735.622996 215.922155 721.829114 208.844508 704.902996 213.42239 696.530291 226.463331L624.609349 338.74192 791.069585 418.794626C798.388173 422.31839 803.839467 428.823802 805.97782 436.65439 808.116173 444.454861 806.790996 452.827567 802.303467 459.604037 802.303467 459.604037 802.303467 459.634155 802.273349 459.634155 794.864408 470.807802 780.438055 474.93392 768.240408 469.42239L592.082291 389.55039Z" fill="#717171" /></svg>