<?xml version="1.0" standalone="no"?><!DOCTYPE svg PUBLIC "-//W3C//DTD SVG 1.1//EN" "http://www.w3.org/Graphics/SVG/1.1/DTD/svg11.dtd"><svg class="icon" width="200px" height="199.80px" viewBox="0 0 1025 1024" version="1.1" xmlns="http://www.w3.org/2000/svg"><path d="M512.001787 156.375851l89.335846 180.989593c17.594547 35.778548 57.494147 64.714942 96.941423 70.515319l199.880731 29.008029-144.641036 141.028592c-28.491235 27.848567-43.700341 74.642511-36.99634 113.959821l34.161646 199.04465-178.737188-93.978809c-21.852729-11.472836-44.666388-13.922749-59.945083-13.922749-15.277671 0-38.092354 2.450936-59.879588 13.922749l-178.805752 93.978809 34.16267-199.04465c6.707071-39.31731-8.508176-86.111254-36.99634-113.959821l-144.638989-141.028592 199.878684-29.008029c39.44523-5.800378 79.345852-34.736772 96.941423-70.515319L512.001787 156.375851M512.001787 24.560527c-5.28563 0-10.569213 4.05965-14.635004 12.180998l-133.938787 271.488994c-7.992405 16.243718-29.261821 31.715827-47.181795 34.293659l-299.5934 43.572421c-17.983422 2.578855-22.04512 15.084257-9.023947 27.780003l216.703669 211.289096c13.021173 12.697792 21.14252 37.706549 18.049941 55.563075l-51.179021 298.366397c-2.192027 12.89223 2.771246 20.563301 11.793146 20.563301 3.418007 0 7.413186-1.097037 11.79417-3.41596l268.009586-140.901696c7.993428-4.191663 18.63223-6.320242 29.201443-6.320242 10.567167 0 21.204945 2.128579 29.195303 6.320242l268.012656 140.901696c4.382007 2.318923 8.379233 3.41596 11.795193 3.41596 9.023947 0 13.986197-7.671071 11.793146-20.563301l-51.180045-298.366397c-3.091556-17.856526 5.030815-42.865283 18.050964-55.563075l216.702645-211.289096c13.019126-12.695746 8.957429-25.202171-9.023947-27.780003l-299.595447-43.572421c-17.918951-2.577832-39.187344-18.049941-47.177702-34.293659L526.63065 36.741525C522.569977 28.620177 517.287417 24.560527 512.001787 24.560527L512.001787 24.560527z" fill="#717171" /></svg>