<?xml version="1.0" standalone="no"?><!DOCTYPE svg PUBLIC "-//W3C//DTD SVG 1.1//EN" "http://www.w3.org/Graphics/SVG/1.1/DTD/svg11.dtd"><svg class="icon" width="200px" height="200.00px" viewBox="0 0 1024 1024" version="1.1" xmlns="http://www.w3.org/2000/svg"><path d="M948.623777 320.891428c-23.870664-56.43022-58.036811-107.105367-101.546767-150.618393-43.512003-43.512003-94.189196-77.677127-150.621463-101.544721-58.430784-24.717961-120.495328-37.247322-184.457082-37.247322-63.960731 0-126.022205 12.530384-184.459129 37.247322-56.43022 23.868617-107.105367 58.030671-150.616346 101.544721-43.514049 43.514049-77.676104 94.189196-101.54779 150.618393-24.714891 58.433854-37.244252 120.495328-37.244253 184.457082 0 63.965847 12.529361 126.020158 37.244253 184.456059 23.868617 56.432267 58.033741 107.105367 101.54779 150.616346 43.51098 43.516096 94.186126 77.682243 150.616346 101.54779 58.4359 24.711821 120.498398 37.245276 184.459129 37.245276 63.961754 0 126.026298-12.533454 184.457082-37.245276 56.432267-23.865547 107.105367-58.031695 150.621463-101.54779 43.51098-43.51098 77.676104-94.183056 101.541651-150.616346 24.717961-58.4359 37.250392-120.490212 37.250392-184.456059 0-63.961754-12.532431-126.024252-37.245276-184.457082zM511.997442 937.780313c-238.443647 0-432.428733-193.988156-432.428734-432.431803 0-238.440577 193.985086-432.429757 432.428734-432.429757 238.444671 0 432.42771 193.989179 432.42771 432.429757 0 238.443647-193.983039 432.431803-432.42771 432.431803zM468.076116 249.966075c0 24.691355 20.018939 44.710294 44.709272 44.710294 24.691355 0 44.716434-20.018939 44.716434-44.710294 0-24.694425-20.025079-44.712341-44.716434-44.712341-24.690332-0.001023-44.709271 20.016893-44.709272 44.712341z m43.620474 104.685247c-16.262382 0-29.443589 11.215436-29.44359 25.053606v410.089959c0 13.83817 13.18223 25.049512 29.44359 25.049512 16.264429 0 29.446659-11.210319 29.446659-25.049512v-410.089959c0-13.837146-13.186324-25.053606-29.446659-25.053606z" fill="#717171" /></svg>