<?xml version="1.0" standalone="no"?><!DOCTYPE svg PUBLIC "-//W3C//DTD SVG 1.1//EN" "http://www.w3.org/Graphics/SVG/1.1/DTD/svg11.dtd"><svg class="icon" width="200px" height="200.00px" viewBox="0 0 1024 1024" version="1.1" xmlns="http://www.w3.org/2000/svg"><path d="M981.462384 468.773217 558.176665 468.773217 558.176665 42.802646C558.181665 19.178945 539.062716 0 515.499012 0c-23.560704 0-42.679653 19.178945-42.679653 42.802646l0 425.970572L42.838009 468.773217c-0.039998 0-0.084995 0-0.127993 0-23.518706 0-42.592657 19.048952-42.682652 42.672653-0.124993 23.618701 18.950958 42.837644 42.512662 42.922639l430.277335 0.005 0 426.770528c0 23.658699 19.118948 42.797646 42.679653 42.797646 23.563704 0 42.682652-19.138947 42.682652-42.797646L558.179665 554.373509l422.930739 0c0.089995 0 0.129993 0 0.169991 0 23.518706 0 42.597657-19.043953 42.687652-42.672653C1024.049042 488.082155 1004.970091 468.863213 981.462384 468.773217z" fill="#11bf79" /></svg>