<?xml version="1.0" standalone="no"?><!DOCTYPE svg PUBLIC "-//W3C//DTD SVG 1.1//EN" "http://www.w3.org/Graphics/SVG/1.1/DTD/svg11.dtd"><svg class="icon" width="200px" height="200.00px" viewBox="0 0 1024 1024" version="1.1" xmlns="http://www.w3.org/2000/svg"><path d="M770.176 896h122.773a21.333 21.333 0 0 0 21.334-21.333c0-91.158-23.787-176.107-64.726-234.304l-6.378 30.506C914.987 627.2 960 546.965 960 458.667c0-121.238-84.693-224.022-198.507-242.432a21.333 21.333 0 0 0-6.826 42.112c92.885 15.018 162.666 99.733 162.666 200.32 0 73.408-37.269 139.84-96.32 175.744a21.333 21.333 0 0 0-6.357 30.506c35.584 50.56 56.96 126.934 56.96 209.75l21.333-21.334H744.47a21.333 21.333 0 0 0 0 42.667h25.707z m-516.352-45.29H131.051l21.333 21.333c0-82.816 21.376-159.19 56.96-209.75a21.333 21.333 0 0 0-6.357-30.506c-59.051-35.904-96.32-102.336-96.32-175.744 0-100.587 69.802-185.302 162.645-200.32a21.333 21.333 0 0 0-6.827-42.112C148.693 232.02 64 334.805 64 456.043c0 88.298 45.013 168.533 116.821 212.202l-6.378-30.506c-40.96 58.197-64.726 143.146-64.726 234.304a21.333 21.333 0 0 0 21.334 21.333h148.48a21.333 21.333 0 1 0 0-42.667h-25.707z" fill="#717171" /><path d="M518.4 85.333c-168.49 0-305.067 136.576-305.067 305.067 0 110.08 58.838 209.963 152.363 264.15l-6.485-31.147c-53.718 72.81-85.078 179.434-85.078 293.93a21.333 21.333 0 0 0 21.334 21.334h445.866a21.333 21.333 0 0 0 21.334-21.334c0-114.538-31.36-221.141-85.12-293.909l-6.443 31.147A304.96 304.96 0 0 0 823.467 390.4c0-168.49-136.576-305.067-305.067-305.067z m131.307 532.31a21.333 21.333 0 0 0-6.464 31.146C691.264 713.771 720 811.477 720 917.333L741.333 896H295.467l21.333 21.333c0-105.813 28.736-203.541 76.736-268.586a21.333 21.333 0 0 0-6.464-31.126A262.25 262.25 0 0 1 256 390.4C256 245.483 373.483 128 518.4 128c144.917 0 262.4 117.483 262.4 262.4 0 94.699-50.56 180.523-131.093 227.243z" fill="#717171" /><path d="M512.107 554.667c72.746-0.384 136-42.496 168.853-119.638a21.333 21.333 0 1 0-39.253-16.725c-26.198 61.483-74.112 93.397-129.814 93.696-55.893 0.32-103.552-31.36-129.536-93.568a21.333 21.333 0 1 0-39.381 16.47c32.64 78.122 95.936 120.17 169.13 119.765z" fill="#717171" /></svg>