<?xml version="1.0" standalone="no"?><!DOCTYPE svg PUBLIC "-//W3C//DTD SVG 1.1//EN" "http://www.w3.org/Graphics/SVG/1.1/DTD/svg11.dtd"><svg class="icon" width="200px" height="182.69px" viewBox="0 0 1121 1024" version="1.1" xmlns="http://www.w3.org/2000/svg"><path d="M926.47619 650.971429V80.457143C926.47619 36.571429 894.780952 0 858.209524 0H68.266667C31.695238 0 0 36.571429 0 80.457143v572.952381C0 697.295238 31.695238 731.428571 68.266667 731.428571h82.895238c7.314286 0 14.628571 7.314286 14.628571 14.628572v158.47619c0 24.380952 12.190476 29.257143 29.257143 12.190477l151.161905-173.104762c7.314286-7.314286 14.628571-9.752381 24.380952-9.752381h487.619048c36.571429-2.438095 68.266667-36.571429 68.266666-82.895238z m-582.704761 36.571428c-9.752381 0-17.066667 4.87619-24.380953 12.190476l-82.895238 97.52381c-9.752381 12.190476-19.504762 9.752381-19.504762-7.314286v-70.704762c0-17.066667-12.190476-31.695238-29.257143-31.695238H63.390476c-7.314286 0-14.628571-7.314286-14.628571-14.628571V80.457143C48.761905 60.952381 60.952381 48.761905 78.019048 48.761905h770.438095c7.314286 0 14.628571 2.438095 19.504762 9.752381s9.752381 12.190476 9.752381 21.942857V658.285714c0 17.066667-12.190476 31.695238-29.257143 31.695238H343.771429z m748.495238-421.790476l-36.571429 2.438095c-7.314286 0-14.628571 2.438095-19.504762 7.314286-4.87619 4.87619-7.314286 12.190476-7.314286 19.504762 0 14.628571 12.190476 21.942857 29.257143 21.942857 7.314286 0 14.628571 12.190476 14.628572 21.942857v502.247619c0 7.314286-7.314286 14.628571-14.628572 14.628572l-177.980952-2.438096c-4.87619 0-7.314286 2.438095-9.752381 4.876191-2.438095 2.438095-2.438095 7.314286-2.438095 9.752381l9.752381 31.695238c2.438095 24.380952-9.752381 29.257143-26.819048 14.628571l-65.828571-51.2c-7.314286-4.87619-17.066667-9.752381-24.380953-9.752381H448.609524c-19.504762 0-34.133333 4.87619-34.133334 24.380953s21.942857 24.380952 31.695239 24.380952h295.009523c9.752381 0 21.942857 0 29.257143 4.876191l138.971429 104.838095c17.066667 14.628571 26.819048 7.314286 24.380952-17.066667l-7.314286-80.457143c0-4.87619 0-7.314286 2.438096-9.752381 2.438095-2.438095 4.87619-4.87619 9.752381-4.87619h138.971428c12.190476 0 21.942857-4.87619 31.695238-12.190476 7.314286-7.314286 12.190476-19.504762 12.190477-31.695238v-560.761905c0-17.066667-12.190476-29.257143-29.257143-29.257143z m-65.828572 31.695238s2.438095-2.438095 0 0v-2.438095 2.438095zM170.666667 268.190476h585.142857V219.428571H170.666667v48.761905z m0 195.047619h414.47619v-48.761905H170.666667v48.761905z" fill="#717171" /></svg>