<?xml version="1.0" standalone="no"?><!DOCTYPE svg PUBLIC "-//W3C//DTD SVG 1.1//EN" "http://www.w3.org/Graphics/SVG/1.1/DTD/svg11.dtd"><svg class="icon" width="200px" height="200.00px" viewBox="0 0 1024 1024" version="1.1" xmlns="http://www.w3.org/2000/svg"><path d="M566.396399 163.954119c-2.366907 10.140964-3.726881 20.647249-7.252171 30.367635-73.238025 201.870684-146.707316 403.657456-220.265636 605.411483-1.37123 3.759627-3.795443 7.529487-6.690376 10.281157C277.726837 861.800851 223.115032 913.428695 168.547229 965.102588c-5.275143 4.994758-11.358699 7.088442-18.314111 4.507664-6.883781-2.553149-10.380418-7.9296-11.211343-15.179724-5.331425-46.480614-10.676154-92.958158-16.052604-139.432633-3.176342-27.454282-6.579859-54.885028-9.478885-82.366939-0.521886-4.952802-0.100284-10.478655 1.586125-15.123442 73.182766-201.537086 146.525168-403.016867 219.939201-604.469018 12.853749-35.270295 45.12371-57.884338 82.491783-57.513902 8.353248 0.082888 17.045211 1.511423 24.951275 4.182252 23.62814 7.987928 47.168276 16.340153 70.327742 25.588795 31.872918 12.729929 52.235688 44.024679 52.197826 78.328973C565.454958 163.735132 565.925678 163.844625 566.396399 163.954119zM168.898223 918.018224c1.791809-1.586125 2.672876-2.318812 3.502777-3.103688 44.160779-41.816384 88.335884-83.617419 132.412752-125.522832 1.941212-1.846044 3.433192-4.479011 4.364401-7.027044 37.694507-103.281271 75.302033-206.593242 112.914676-309.903166 34.824133-95.6515 69.309552-191.429891 104.647385-286.891056 11.957333-32.301683-4.02671-62.437028-33.777291-71.933309-19.314904-6.166443-38.363749-13.288654-57.192583-20.830421-28.149107-11.272741-59.643402 5.452175-69.332065 32.199353-72.456219 200.016453-145.398508 399.856897-218.147392 599.765903-0.664126 1.826602-1.274016 3.90596-1.069355 5.777587 1.949398 17.873066 4.089132 35.725666 6.157233 53.586452 3.868097 33.406854 7.719822 66.814732 11.585873 100.220562C166.224324 895.242498 167.508573 906.126382 168.898223 918.018224z" fill="#717171" /><path d="M708.598098 725.139332c-61.161988 0-122.322953 0.00614-183.484941-0.020466-2.823302-0.001023-5.731538 0.092098-8.452509-0.517793-7.541767-1.688455-12.69923-8.652054-12.624529-16.514115 0.072655-7.833409 5.408173-14.511505 13.072737-16.111956 2.26253-0.472767 4.625344-0.649799 6.941086-0.650823 122.989125-0.028653 245.978251-0.030699 368.968399-0.01842 12.901845 0.002047 20.599154 7.062859 20.008706 18.22099-0.428765 8.119935-6.792707 14.740726-14.95255 15.442714-2.319835 0.198521-4.662183 0.161682-6.994298 0.162706C830.253856 725.140355 769.425466 725.139332 708.598098 725.139332z" fill="#717171" /><path d="M742.949464 520.791224c49.660027 0 99.3221-0.010233 148.982126 0.026606 2.983961 0.002047 6.067182-0.032746 8.931416 0.662079 7.52744 1.824555 12.403494 8.795317 12.193717 16.801664-0.205685 7.829316-5.659907 14.335497-13.426801 15.790638-2.27481 0.425695-4.632507 0.571005-6.952342 0.572028-99.987249 0.026606-199.974497 0.026606-299.962769 0.01842-11.021008-0.001023-17.403369-4.062526-19.783579-12.472056-2.880607-10.181897 4.00829-20.269649 14.545274-21.205974 2.318812-0.205685 4.66116-0.184195 6.992251-0.184195C643.963009 520.789177 693.455213 520.791224 742.949464 520.791224z" fill="#717171" /><path d="M793.571399 383.898437c-33.475416-0.001023-66.949808 0.035816-100.426247-0.021489-11.541871-0.020466-19.128663-7.689123-18.35402-18.269086 0.599657-8.172123 6.873548-14.642488 15.034415-15.451924 1.321088-0.132006 2.662643-0.106424 3.992941-0.106424 66.784032-0.005117 133.568065-0.013303 200.352097 0.004093 11.006681 0.00307 18.381649 6.215562 18.85851 15.72924 0.517793 10.342556-6.724145 17.996886-17.534352 18.073634-19.317974 0.135076-38.637995 0.040932-57.956993 0.041956C822.884005 383.89946 808.228213 383.898437 793.571399 383.898437z" fill="#717171" /></svg>