<?xml version="1.0" standalone="no"?><!DOCTYPE svg PUBLIC "-//W3C//DTD SVG 1.1//EN" "http://www.w3.org/Graphics/SVG/1.1/DTD/svg11.dtd"><svg class="icon" width="200px" height="200.00px" viewBox="0 0 1024 1024" version="1.1" xmlns="http://www.w3.org/2000/svg"><path d="M680.598588 347.557647c34.454588-32.045176 59.452235-75.354353 66.861177-120.832 9.577412-59.151059-10.721882-114.326588-57.163294-155.286588A148.901647 148.901647 0 0 0 578.56 34.454588c-52.585412 3.855059-105.050353 32.346353-143.841882 78.305883-36.743529 43.429647-55.657412 98.243765-51.802353 150.347294a24.877176 24.877176 0 1 0 49.633882-3.614118c-2.891294-39.273412 11.806118-81.016471 40.176941-114.627765 30.238118-35.719529 70.113882-57.825882 109.44753-60.717176 28.611765-2.048 54.633412 6.445176 75.233882 24.576 42.465882 37.526588 45.718588 80.534588 40.899765 110.049882-8.312471 51.2-47.465412 101.195294-95.232 121.494588a24.214588 24.214588 0 0 0-10.541177 9.216c-27.949176 2.048-63.126588 3.855059-101.797647 3.855059-58.307765 0-106.255059-5.300706-135.168-9.517176L355.026824 343.341176c-10.842353-8.252235-45.176471-64.873412-56.982589-91.858823-20.48-46.802824-6.445176-97.761882 32.527059-118.543059 4.035765-2.168471 16.263529-8.734118 43.730824-0.783059a24.877176 24.877176 0 1 0 13.733647-47.826823c-31.503059-9.095529-57.946353-7.529412-80.896 4.638117-62.162824 33.189647-85.654588 111.616-54.753883 182.452706 5.662118 12.890353 24.395294 48.368941 43.489883 76.739765C146.492235 426.767059 90.051765 628.796235 90.051765 741.616941c0 225.701647 207.028706 256.180706 409.6 256.180706 202.209882 0 434.296471-29.153882 434.29647-256.180706 0-118.181647-87.100235-350.448941-253.349647-394.059294z m-181.007059 600.425412c-258.891294 0-359.725176-57.825882-359.725176-206.366118 0-109.748706 57.163294-289.430588 183.958588-352.37647 21.985882 3.975529 84.208941 13.854118 166.851765 13.854117 27.648 0 53.127529-0.843294 75.956706-2.108235 15.480471 25.298824 37.165176 72.463059 35.418353 135.830588a22.648471 22.648471 0 0 0 10.059294 43.068235c12.649412 0 22.829176-10.24 22.829176-22.829176a22.467765 22.467765 0 0 0-8.071529-17.046588 271.841882 271.841882 0 0 0-32.286118-140.769883l11.625412-0.903529c16.986353 22.889412 82.401882 119.687529 104.990118 278.588235a22.407529 22.407529 0 0 0-9.155765 17.829647 22.829176 22.829176 0 0 0 45.598118 0 22.467765 22.467765 0 0 0-11.444706-19.395764c-20.540235-147.154824-75.354353-241.844706-101.195294-279.612236 11.083294-1.144471 19.456-2.168471 24.094117-2.710588 145.648941 29.515294 225.099294 244.856471 225.099294 348.581647 0 144.624941-115.049412 206.366118-384.602353 206.366118z" fill="#7dd67f" /></svg>