<?xml version="1.0" standalone="no"?><!DOCTYPE svg PUBLIC "-//W3C//DTD SVG 1.1//EN" "http://www.w3.org/Graphics/SVG/1.1/DTD/svg11.dtd"><svg class="icon" width="200px" height="200.00px" viewBox="0 0 1024 1024" version="1.1" xmlns="http://www.w3.org/2000/svg"><path d="M725.333333 213.333333c-46.933333 0-85.333333 38.4-85.333333 85.333333 0 46.933333 38.4 85.333333 85.333333 85.333333s85.333333-38.4 85.333333-85.333333C810.666667 251.733333 772.266667 213.333333 725.333333 213.333333zM725.333333 341.333333c-23.466667 0-42.666667-19.2-42.666667-42.666667 0-23.466667 19.2-42.666667 42.666667-42.666667s42.666667 19.2 42.666667 42.666667C768 322.133333 748.8 341.333333 725.333333 341.333333zM810.666667 128 569.6 128c-23.466667 0-44.8 8.533333-59.733333 25.6l-405.333333 405.333333c-34.133333 34.133333-34.133333 87.466667 0 121.6l241.066667 241.066667C362.666667 938.666667 384 945.066667 405.333333 945.066667c21.333333 0 42.666667-8.533333 59.733333-25.6l405.333333-405.333333c14.933333-17.066667 25.6-38.4 25.6-59.733333L896 213.333333C896 166.4 857.6 128 810.666667 128zM853.333333 454.4c0 10.666667-4.266667 21.333333-12.8 29.866667l-405.333333 405.333333c-8.533333 8.533333-19.2 12.8-29.866667 12.8-10.666667 0-21.333333-4.266667-29.866667-12.8L132.266667 648.533333C125.866667 640 121.6 629.333333 121.6 618.666667c0-10.666667 4.266667-21.333333 12.8-29.866667l405.333333-405.333333C546.133333 174.933333 558.933333 170.666667 569.6 170.666667L810.666667 170.666667c23.466667 0 42.666667 19.2 42.666667 42.666667L853.333333 454.4z" fill="#717171" /></svg>