<?xml version="1.0" standalone="no"?><!DOCTYPE svg PUBLIC "-//W3C//DTD SVG 1.1//EN" "http://www.w3.org/Graphics/SVG/1.1/DTD/svg11.dtd"><svg class="icon" width="200px" height="169.68px" viewBox="0 0 1207 1024" version="1.1" xmlns="http://www.w3.org/2000/svg"><path d="M1197.714286 1024 1115.428571 1024 932.571429 1024 896 1024 731.428571 1024 548.571429 1024 384 1024 347.428571 1024 91.428571 1024 9.142857 1024C4.096 1024 0 1019.904 0 1014.857143L0 996.571429C0 991.524571 4.096 987.428571 9.142857 987.428571L54.857143 987.428571C54.857143 987.428571 54.857143 987.428571 54.857143 987.428571L54.857143 219.410286C54.857143 199.222857 71.222857 182.838857 91.428571 182.838857L347.428571 182.838857 347.428571 36.571429C347.428571 16.365714 363.794286 0 384 0L896 0C916.187429 0 932.571429 16.365714 932.571429 36.571429L932.571429 255.981714 1115.428571 255.981714C1135.616 255.981714 1152 272.365714 1152 292.553143L1152 987.428571C1152 987.428571 1152 987.428571 1152 987.428571L1197.714286 987.428571C1202.761143 987.428571 1206.857143 991.524571 1206.857143 996.571429L1206.857143 1014.857143C1206.857143 1019.904 1202.761143 1024 1197.714286 1024ZM347.428571 219.428571 91.428571 219.428571 91.428571 987.428571 347.428571 987.428571 347.428571 219.428571ZM548.571429 987.428571 731.428571 987.428571 731.428571 768 548.571429 768 548.571429 987.428571ZM896 292.553143 896 36.553143 384 36.553143 384 219.410286 384 987.410286 512 987.410286 512 768C512 747.794286 528.365714 731.428571 548.571429 731.428571L731.428571 731.428571C751.616 731.428571 768 747.794286 768 768L768 987.410286 896 987.410286 896 292.553143ZM1115.428571 292.571429 932.571429 292.571429 932.571429 987.428571 1115.428571 987.428571 1115.428571 292.571429ZM475.428571 576 475.428571 557.714286C475.428571 552.667429 479.524571 548.571429 484.571429 548.571429L795.428571 548.571429C800.475429 548.571429 804.571429 552.667429 804.571429 557.714286L804.571429 576C804.571429 581.046857 800.475429 585.142857 795.428571 585.142857L484.571429 585.142857C479.524571 585.142857 475.428571 581.046857 475.428571 576ZM795.428571 457.142857 484.571429 457.142857C479.524571 457.142857 475.428571 453.046857 475.428571 448L475.428571 429.696C475.428571 424.649143 479.524571 420.553143 484.571429 420.553143L795.428571 420.553143C800.475429 420.553143 804.571429 424.649143 804.571429 429.696L804.571429 448C804.571429 453.046857 800.475429 457.142857 795.428571 457.142857ZM795.428571 329.124571 484.571429 329.124571C479.524571 329.124571 475.428571 325.046857 475.428571 320L475.428571 301.714286C475.428571 296.649143 479.524571 292.571429 484.571429 292.571429L795.428571 292.571429C800.475429 292.571429 804.571429 296.649143 804.571429 301.714286L804.571429 320C804.571429 325.046857 800.475429 329.124571 795.428571 329.124571ZM795.428571 201.124571 484.571429 201.124571C479.524571 201.124571 475.428571 197.046857 475.428571 191.981714L475.428571 173.696C475.428571 168.649143 479.524571 164.571429 484.571429 164.571429L795.428571 164.571429C800.475429 164.571429 804.571429 168.649143 804.571429 173.696L804.571429 191.981714C804.571429 197.046857 800.475429 201.124571 795.428571 201.124571Z" fill="#717171" /></svg>