<?xml version="1.0" standalone="no"?><!DOCTYPE svg PUBLIC "-//W3C//DTD SVG 1.1//EN" "http://www.w3.org/Graphics/SVG/1.1/DTD/svg11.dtd"><svg class="icon" width="200px" height="200.00px" viewBox="0 0 1024 1024" version="1.1" xmlns="http://www.w3.org/2000/svg"><path d="M819.246151 63.413262H205.371926c-86.004793 0-86.004793 85.639472-86.004793 85.639472v727.939098s0 85.640496 87.318718 85.640495h508.032642l187.867762-149.870356V149.052734c-0.001023 0-1.313925-85.639472-83.340104-85.639472z m41.003879 727.938074L690.907181 919.814126H225.207693c-63.503313 0-63.503313-64.23293-63.503313-64.23293V170.462347s0-64.230883 63.503313-64.230884h571.536978c63.506383 0 63.506383 64.230883 63.506383 64.230884v620.888989h-0.001024zM267.542894 534.431895h486.865553v42.820248H267.542894v-42.820248z m0-171.277921h486.865553v42.819224H267.542894V363.153974z m0-171.279969h232.850255v42.819225H267.542894v-42.819225z m550.370912 492.429269H627.401822v192.689581h42.3352V727.122499h148.176784v-42.819225z" fill="#717171" /></svg>