<?xml version="1.0" standalone="no"?><!DOCTYPE svg PUBLIC "-//W3C//DTD SVG 1.1//EN" "http://www.w3.org/Graphics/SVG/1.1/DTD/svg11.dtd"><svg class="icon" width="200px" height="200.00px" viewBox="0 0 1024 1024" version="1.1" xmlns="http://www.w3.org/2000/svg"><path d="M247.38 710.34h365.732v44.28H247.38v-44.28z" fill="#717171" /><path d="M247.38 343.968h228.877v44.293H247.38v-44.293z m0 180.157h365.732v44.278H247.38v-44.278z m594.015-136.473H567.71V120.77H156.55c-25.497 0-45.401 20.003-45.401 44.264v703.611c0 24.872 20.53 35.193 45.401 35.193h465.904v44.28H155.926c-50.369 0-91.426-12.75-91.426-61.871V165.035c0-49.12 41.057-89.154 91.426-89.154h456.56l274.337 267.492v312.382h-45.429l0.001-268.103zM613.112 135.933v207.44h212.723l-212.723-207.44z" fill="#717171" /><path d="M934.069 657.571c9.342 8.488 8.743 8.488 16.808 15.771 7.469 7.284 14.936 26.08 0 41.242-14.933 15.16-197.16 195.318-197.16 195.318s-83.362 34.581-88.36 36.399c-4.344 1.818-8.064-2.442-6.19-6.673 1.846-4.258 36.684-83.702 36.684-83.702s185.35-185.01 197.788-197.133c11.838-11.527 31.116-9.712 40.43-1.222zM697.724 912.315l46.65-19.393-26.748-26.093-19.902 45.486z m39.182-70.344l29.871 28.507 98.269-97.66-29.218-28.507-98.922 97.66z m118.797-120.119l29.247 28.522 13.061-12.734-29.247-28.507-13.061 12.719z m30.494-30.323l29.872 28.506s6.189-6.061 10.561-10.902c4.343-4.259 5.593-12.748-0.625-18.81-4.998-4.855-5.622-5.451-9.936-9.695-4.998-4.258-13.687-4.857-18.685 0-4.969 4.84-11.187 10.901-11.187 10.901z" fill="#717171" /></svg>