<?xml version="1.0" standalone="no"?><!DOCTYPE svg PUBLIC "-//W3C//DTD SVG 1.1//EN" "http://www.w3.org/Graphics/SVG/1.1/DTD/svg11.dtd"><svg class="icon" width="200px" height="200.00px" viewBox="0 0 1024 1024" version="1.1" xmlns="http://www.w3.org/2000/svg"><path d="M798.408055 213.381855c-113.940029-113.946168-298.667264-113.946168-412.619572 0-99.803054 99.80817-112.176872 253.930363-37.130665 367.216499l-45.38977 45.39284-82.524528-82.524528c-22.780843-22.786982-59.730383-22.786982-82.517365 0-22.792099 22.792099-22.792099 59.747779 0 82.528622l82.518389 82.522482-82.518389 82.522482c-22.792099 22.793122-22.792099 59.735499 0 82.528622 22.786982 22.786982 59.735499 22.786982 82.517365 0l82.524528-82.524528 82.520435 82.524528c22.793122 22.786982 59.741639 22.786982 82.528622 0 22.788006-22.792099 22.788006-59.735499 0-82.528622l-82.522482-82.522482 45.390793-45.390793c113.289206 75.0503 267.413446 62.676481 367.221616-37.131689C912.353201 512.049119 912.353201 327.321884 798.408055 213.381855zM715.891713 543.466666c-68.366064 68.359924-179.212638 68.359924-247.573585 0-68.359924-68.359924-68.359924-179.201381 0-247.562329 68.360947-68.372204 179.207521-68.372204 247.573585 0C784.251637 364.265284 784.251637 475.106742 715.891713 543.466666z" fill="#d4237a" /></svg>