<?xml version="1.0" standalone="no"?><!DOCTYPE svg PUBLIC "-//W3C//DTD SVG 1.1//EN" "http://www.w3.org/Graphics/SVG/1.1/DTD/svg11.dtd"><svg class="icon" width="200px" height="200.00px" viewBox="0 0 1024 1024" version="1.1" xmlns="http://www.w3.org/2000/svg"><path d="M323.999 342.342c-12.596 0-23.461 10.706-23.461 23.934v375.056c0 13.54 10.548 23.934 23.461 23.934 12.596 0 23.461-10.706 23.461-23.934v-375.056c0-13.54-10.393-23.934-23.461-23.934z" fill="#11bf79" /><path d="M901.542 154.341h-154.621v-25.348c-0.158-7.243-0.787-14.486-2.046-21.414v-0.314c-10.864-59.517-62.667-103.921-125.018-103.921h-215.712c-62.51 0-113.998 44.874-125.018 103.921v0 0.314c-1.26 6.929-2.046 14.014-2.046 21.414v0 25.348h-154.778c-70.225 0-127.225 56.998-127.225 127.538v544.003c0 70.54 56.998 127.38 127.225 127.538 18.107 41.726 59.517 70.54 107.856 70.54 48.496 0 89.749-28.972 107.698-70.54h348.289c18.107 41.726 59.517 70.54 107.856 70.54 48.496 0 89.749-28.972 107.698-70.54 70.225 0 127.225-57.156 127.225-127.538v-544.161c0-70.54-56.998-127.38-127.38-127.38zM400.049 50.265h223.743c42.039 0 76.050 34.325 76.050 76.681v27.239h-375.843v-27.239c0-42.198 34.010-76.681 76.050-76.681zM981.843 829.35c0 42.355-34.482 76.837-76.050 76.837h-41.411c0 38.892-31.333 70.54-70.54 70.54-38.892 0-70.54-31.649-70.54-70.54h-422.765c0 38.892-31.333 70.54-70.54 70.54-38.892 0-70.54-31.649-70.54-70.54h-41.252c-42.039 0-76.050-34.010-76.050-76.837v-551.247c0-42.355 34.641-76.837 76.050-76.837h787.585c42.039 0 76.050 34.010 76.050 76.837v551.247z" fill="#11bf79" /><path d="M700.001 342.342c-12.596 0-23.461 10.706-23.461 23.934v375.056c0 13.54 10.548 23.934 23.461 23.934 12.596 0 23.461-10.706 23.461-23.934v-375.056c0-13.54-10.548-23.934-23.461-23.934z" fill="#11bf79" /></svg>