<?xml version="1.0" standalone="no"?><!DOCTYPE svg PUBLIC "-//W3C//DTD SVG 1.1//EN" "http://www.w3.org/Graphics/SVG/1.1/DTD/svg11.dtd"><svg class="icon" width="200px" height="200.00px" viewBox="0 0 1024 1024" version="1.1" xmlns="http://www.w3.org/2000/svg"><path d="M941.17888 358.89152c0-9.33888-1.35168-18.8416-3.11296-27.97568-7.20896-37.10976-29.73696-44.31872-76.06272-44.4416-69.87776-0.24576-139.71456-0.08192-209.59232-0.08192-172.60544 0-345.16992 0.04096-517.77536-0.04096-16.09728 0-46.98112-3.93216-67.46112 4.25984C34.65216 303.67744 39.97696 316.53888 39.97696 360.12032c0.04096 151.67488 0 303.34976 0.04096 455.02464 0 3.8912 0.04096 7.82336 0.4096 11.71456 3.85024 42.22976 16.50688 71.10656 55.5008 87.12192 4.05504 1.6384 6.06208 3.76832 7.53664 7.74144 24.12544 64.38912 103.8336 85.68832 157.04064 42.10688 14.17216-11.63264 24.04352-45.58848 30.67904-62.8736l5.65248 0c132.83328 0 265.66656 0.04096 398.49984-0.08192 4.21888 0 6.30784-1.51552 8.06912 2.6624 16.54784 38.62528 52.87936 83.968 93.83936 83.06688 41.86112-0.90112 76.75904-25.96864 92.16-65.9456 0.94208-2.37568 3.31776-4.99712 5.65248-5.9392 42.8032-16.91648 46.20288-51.6096 46.24384-98.01728C941.34272 664.08448 941.38368 511.46752 941.17888 358.89152zM326.41024 718.60224c-0.04096 33.13664-22.15936 43.99104-42.8032 43.04896-21.13536-0.98304-35.88096-18.432-37.2736-39.77216-0.04096-0.90112-0.04096-1.8432-0.04096-2.74432 0-87.53152-0.04096-175.06304 0.04096-262.5536 0-22.40512 17.73568-48.29184 39.40352-47.3088 14.09024 0.65536 39.85408 17.53088 40.26368 40.63232 0.08192 3.44064 0.45056 6.88128 0.45056 10.32192 0.04096 42.72128 0 85.44256 0 128.16384C326.41024 631.76704 326.4512 675.18464 326.41024 718.60224zM736.62464 719.29856c-0.04096 24.90368-17.57184 41.3696-41.61536 41.32864-28.54912-0.04096-40.05888-25.88672-40.09984-41.49248-0.08192-43.86816-0.04096-87.73632-0.04096-131.64544 0-44.11392-0.16384-88.18688 0.08192-132.3008 0.12288-24.12544 17.48992-46.36672 41.08288-45.54752 32.27648 1.10592 40.5504 31.29344 40.59136 46.40768 0.08192 32.84992 0.04096 65.69984 0.04096 98.54976C736.6656 609.4848 736.74752 664.3712 736.62464 719.29856zM283.32032 244.57216c16.384 0.08192 40.05888-0.16384 42.76224-34.65216C327.68 190.01344 326.12352 180.18304 326.16448 160.19456 326.20544 135.94624 333.0048 122.79808 357.33504 122.75712c85.72928 0 181.6576 0 267.38688 0 24.45312 0 30.1056 13.43488 30.18752 38.05184 0.04096 19.78368-0.04096 29.2864 0.08192 49.07008 0 3.85024 0.2048 7.86432 1.2288 11.59168 4.25984 15.5648 23.42912 22.56896 38.83008 24.08448 17.408 1.67936 41.3696-15.44192 41.61536-33.01376 0.28672-21.13536 0.08192-42.27072 0.08192-63.40608-0.04096-59.51488-51.24096-109.81376-110.87872-109.81376-43.2128 0-86.38464 0-129.59744 0-44.35968 0-124.5184 0-168.87808 0-0.45056 0-0.94208-0.12288-1.39264 0C273.36704 56.60672 249.4464 99.1232 245.30944 148.76672 243.0976 175.22688 241.00864 188.17024 244.5312 214.58944 246.49728 229.53984 262.22592 244.49024 283.32032 244.57216z" fill="#11bf79" /></svg>