<?xml version="1.0" standalone="no"?><!DOCTYPE svg PUBLIC "-//W3C//DTD SVG 1.1//EN" "http://www.w3.org/Graphics/SVG/1.1/DTD/svg11.dtd"><svg class="icon" width="200px" height="200.00px" viewBox="0 0 1024 1024" version="1.1" xmlns="http://www.w3.org/2000/svg"><path d="M900.235876 928.150433A158.376907 158.376907 0 0 1 754.722309 1024h-490.886598a158.350515 158.350515 0 0 1-146.680082-98.673485c-143.407505-73.142103-150.316866-282.951258-11.670433-366.734515V432.824742a343.092784 343.092784 0 0 1 283.088495-337.756371c27.500206-127.018227 220.323629-126.680412 246.94235 0.987052A343.150845 343.150845 0 0 1 913.072825 432.824742v123.075299c146.384495 82.574515 138.889237 301.53633-12.836949 372.250392zM105.485196 865.649485v-255.245196c-78.283216 66.755299-76.536082 192.084454 0.042227 256.844536-0.005278-0.54367-0.042227-1.071505-0.042227-1.59934z m329.105155-775.563877c4.644948-0.184742 9.295175-0.353649 13.987628-0.353649h121.402062c6.497649 0 12.942515 0.216412 19.350433 0.57534-27.426309-64.005278-127.155464-64.084454-154.740123-0.221691zM870.846021 438.103093a306.14433 306.14433 0 0 0-306.14433-306.14433h-110.845361a306.14433 306.14433 0 0 0-306.14433 306.14433v411.71134a131.958763 131.958763 0 0 0 131.958763 131.958763h459.216495a131.958763 131.958763 0 0 0 131.958763-131.958763V438.103093z m42.226804 168.210474V865.649485c0 1.942433-0.079175 3.858474-0.147794 5.806185 83.809649-64.559505 85.804866-198.275959 0.147794-265.142103z m-211.134021 301.562722h-369.484536a79.175258 79.175258 0 0 1-79.175258-79.175258v-131.958763a79.175258 79.175258 0 0 1 79.175258-79.175258h369.484536a79.175258 79.175258 0 0 1 79.175258 79.175258v131.958763a79.175258 79.175258 0 0 1-79.175258 79.175258z m36.948454-195.298969a52.783505 52.783505 0 0 0-52.783505-52.783506h-337.814433a52.783505 52.783505 0 0 0-52.783506 52.783506v100.288659a52.783505 52.783505 0 0 0 52.783506 52.783506h337.814433a52.783505 52.783505 0 0 0 52.783505-52.783506v-100.288659z m10.556701-242.804124c-11.691546-0.390598-20.812536-19.561567-24.069279-40.194639-36.315052-238.481155-395.876289-238.481155-432.19134 0-3.256742 20.638351-12.377732 39.804041-24.069278 40.194639-11.612371 0.464495-21.519835-22.438268-17.587464-47.93798 43.319423-284.450309 472.185402-284.450309 515.504825 0 3.932371 25.499711-5.975093 48.402474-17.587464 47.93798z" fill="#11bf79" /></svg>