<?xml version="1.0" standalone="no"?><!DOCTYPE svg PUBLIC "-//W3C//DTD SVG 1.1//EN" "http://www.w3.org/Graphics/SVG/1.1/DTD/svg11.dtd"><svg class="icon" width="200px" height="200.00px" viewBox="0 0 1024 1024" version="1.1" xmlns="http://www.w3.org/2000/svg"><path d="M118.588906 907.478798c-41.962228 0-76.01853-34.056301-76.018529-76.01853V645.245279c0-41.962228 34.056301-76.01853 76.018529-76.01853s76.01853 34.056301 76.01853 76.01853v186.336619c0 41.840599-34.177931 75.8969-76.01853 75.8969z" fill="#11bf79" /><path d="M118.588906 592.701271c-28.947856 0-52.422378 23.474522-52.422378 52.422378v186.336619c0 28.947856 23.474522 52.422378 52.422378 52.422378s52.422378-23.474522 52.422378-52.422378V645.245279c0-28.947856-23.474522-52.422378-52.422378-52.544008zM905.411094 907.478798c-41.840599 0-76.01853-34.056301-76.01853-76.01853V645.245279c0-41.962228 34.056301-76.01853 76.01853-76.01853s76.01853 34.056301 76.018529 76.01853v186.336619c0 41.840599-34.056301 75.8969-76.018529 75.8969z" fill="#11bf79" /><path d="M905.411094 592.701271c-28.947856 0-52.422378 23.474522-52.422378 52.422378v186.336619c0 28.947856 23.474522 52.422378 52.422378 52.422378s52.422378-23.474522 52.422378-52.422378V645.245279c0-28.947856-23.474522-52.422378-52.422378-52.544008zM511.939185 37.340302c40.745932 0 75.77527 24.690818 90.978976 59.841786-21.041929-3.770519-42.448747-5.716593-63.855564-5.716593h-54.246823c-21.771707 0-43.178525 2.067704-63.855565 5.716593 15.325336-35.150968 50.354674-59.841786 90.978976-59.841786z" fill="#11bf79" /><path d="M629.919943 102.898682c-14.717187-51.327711-61.90949-89.032902-117.980758-89.032902-55.949638 0-103.26357 37.705191-117.980758 89.032902C236.934553 143.401354 120.413351 286.31619 120.413351 455.867918v406.85117c0 81.248604 66.166528 147.415132 147.415132 147.415132h488.343034c81.248604 0 147.415132-66.166528 147.415132-147.415132V455.867918c0-169.551728-116.521202-312.466564-273.666706-352.969236z m-135.981946 114.940016h36.002376c135.495427 0 245.813517 110.19646 245.813517 245.813517 0 3.162371-1.216296 6.081482-3.40563 8.270816-2.189334 2.189334-5.230075 3.40563-8.270816 3.40563-3.162371 0-6.081482-1.216296-8.270816-3.40563-2.189334-2.189334-3.40563-5.230075-3.40563-8.270816 0-122.481055-99.736311-222.217365-222.217366-222.217365H494.181257c-122.481055 0-222.217365 99.736311-222.217366 222.217365 0 6.446371-5.230075 11.798076-11.798076 11.798076-6.446371 0-11.798076-5.230075-11.798075-11.798076-0.12163-135.495427 110.074831-245.813517 245.570257-245.813517z m282.302412 553.779784c0 69.937047-56.922675 126.738092-126.738093 126.738092H374.497684c-69.937047 0-126.738092-56.922675-126.738093-126.738092v-86.23542c0-69.937047 56.922675-126.738092 126.738093-126.738092h275.004632c69.937047 0 126.738092 56.922675 126.738093 126.738092v86.23542z" fill="#11bf79" /><path d="M784.511225 532.981114c0 10.095261-8.149186 18.366077-18.366077 18.366077-10.095261 0-18.366077-8.270816-18.366077-18.366077v-20.67704c0-10.095261 8.270816-18.366077 18.366077-18.366077s18.366077 8.270816 18.366077 18.366077v20.67704z" fill="#11bf79" /></svg>