<?xml version="1.0" standalone="no"?><!DOCTYPE svg PUBLIC "-//W3C//DTD SVG 1.1//EN" "http://www.w3.org/Graphics/SVG/1.1/DTD/svg11.dtd"><svg class="icon" width="200px" height="200.00px" viewBox="0 0 1024 1024" version="1.1" xmlns="http://www.w3.org/2000/svg"><path d="M781.1072 115.3024H495.4112v119.1936h199.68l-184.1152 184.1152c-43.6224-28.0576-95.6416-44.4416-151.3472-44.4416-154.4192 0-280.1664 125.7472-280.1664 280.1664s125.7472 280.1664 280.1664 280.1664 280.1664-125.7472 280.1664-280.1664c0-55.7056-16.384-107.7248-44.4416-151.3472l185.7536-185.7536V520.192h119.1936V115.3024h-119.1936zM359.6288 822.0672c-92.5696 0-167.936-75.3664-167.936-167.936s75.3664-167.936 167.936-167.936 167.936 75.3664 167.936 167.936c0 92.7744-75.3664 167.936-167.936 167.936z" fill="#1296db" /></svg>