<?xml version="1.0" standalone="no"?><!DOCTYPE svg PUBLIC "-//W3C//DTD SVG 1.1//EN" "http://www.w3.org/Graphics/SVG/1.1/DTD/svg11.dtd"><svg class="icon" width="200px" height="200.00px" viewBox="0 0 1024 1024" version="1.1" xmlns="http://www.w3.org/2000/svg"><path d="M772.266667 603.733333v46.933334c83.2 34.133333 136.533333 83.2 136.533333 136.533333 0 98.133333-181.333333 181.333333-394.666667 181.333333s-394.666667-85.333333-394.666666-183.466666c0-49.066667 44.8-93.866667 117.333333-128v-46.933334c-98.133333 40.533333-160 102.4-160 174.933334 0 125.866667 192 224 437.333333 224s437.333333-98.133333 437.333334-224c0-76.8-70.4-142.933333-179.2-181.333334z" fill="#d4237a" /><path d="M514.133333 0c-160 0-288 151.466667-288 311.466667s288 497.066667 288 497.066666 288-337.066667 288-497.066666S674.133333 0 514.133333 0z m0 462.933333c-78.933333 0-145.066667-64-145.066666-145.066666s64-145.066667 145.066666-145.066667c78.933333 0 145.066667 64 145.066667 145.066667s-66.133333 145.066667-145.066667 145.066666z" fill="#d4237a" /></svg>