<?xml version="1.0" standalone="no"?><!DOCTYPE svg PUBLIC "-//W3C//DTD SVG 1.1//EN" "http://www.w3.org/Graphics/SVG/1.1/DTD/svg11.dtd"><svg class="icon" width="200px" height="200.00px" viewBox="0 0 1024 1024" version="1.1" xmlns="http://www.w3.org/2000/svg"><path d="M553.034579 918.363078c-14.112416-0.73678-27.845185-1.932002-40.804335-3.545756-11.214413-1.653663-21.37175 6.513344-22.757307 17.708314-1.394766 11.19497 6.54302 21.372773 17.7165 22.76754 13.915941 1.732457 28.615735 3.027963 43.693128 3.824095 0.36839 0.019443 0.727571 0.019443 1.093914 0.019443 10.768251 0 19.771299-8.445346 20.348444-19.321044C572.923558 928.541905 564.289923 918.941246 553.034579 918.363078zM434.006671 897.228735c-12.95608-4.640694-24.746614-10.078543-35.035958-16.114003-9.720386-5.757121-22.220071-2.430352-27.916816 7.250124-5.708002 9.720386-2.449795 22.229281 7.260357 27.926026 12.468986 7.310499 26.572192 13.804401 41.910529 19.34151 2.279926 0.797156 4.598738 1.174756 6.891967 1.174756 8.364505 0 16.20303-5.15951 19.202341-13.505595C450.122721 912.725684 444.61631 901.013945 434.006671 897.228735zM840.824097 763.373121c-11.034311 2.291183-18.126846 13.087063-15.835663 24.122397 1.3743 6.593162 2.073218 13.066597 2.073218 19.221784 0 5.019317-0.478907 10.039657-1.39579 14.839986-2.152013 11.075243 5.079692 21.771863 16.153912 23.882943 1.294482 0.279363 2.609431 0.378623 3.88447 0.378623 9.582239 0 18.126846-6.752798 19.998473-16.513092 1.434675-7.369851 2.153036-14.939247 2.153036-22.588461 0-8.92323-0.977257-18.186198-2.90926-27.508517C862.635869 768.154008 851.760171 761.142314 840.824097 763.373121zM823.693952 695.608761c-8.625448-11.313673-18.584264-22.668279-29.598108-33.842783-7.890714-8.027837-20.796652-8.106632-28.843932-0.218988-8.02886 7.887644-8.108678 20.835538-0.199545 28.862351 9.800203 9.939373 18.644639 20.058848 26.251897 29.977755 4.024663 5.258771 10.080589 8.007371 16.216333 8.007371 4.321422 0 8.68173-1.3743 12.368702-4.202719C828.854485 717.320249 830.547033 704.531991 823.693952 695.608761zM676.073846 913.960815c-12.986779 1.852184-26.65201 3.226484-40.636512 4.122901-11.242042 0.73678-19.768229 10.437723-19.042705 21.692045 0.697895 10.79588 9.673313 19.082614 20.338211 19.082614 0.437975 0 0.887206-0.039909 1.334391-0.039909 15.020088-0.995677 29.738301-2.470261 43.742247-4.461615 11.153014-1.593288 18.903535-11.911284 17.32969-23.066345C697.547927 920.136467 687.24835 912.287709 676.073846 913.960815zM786.584776 876.234585c-9.600659 6.652514-20.8734 12.668531-33.483602 17.847483-10.419304 4.303003-15.377222 16.214287-11.095709 26.65201 3.247974 7.868201 10.858302 12.628622 18.863626 12.628622 2.589988 0 5.240351-0.49835 7.769964-1.533936 15.31787-6.314823 29.181623-13.764492 41.173748-22.050202 9.261944-6.453992 11.570523-19.162432 5.157463-28.404933C808.554136 872.131127 795.805788 869.820502 786.584776 876.234585zM740.412177 603.742471c-5.835915-10.437723-9.402137-21.273513-10.57587-32.248472-1.196245-11.19497-11.016915-19.281135-22.450315-18.085914-11.214413 1.195222-19.321044 11.233855-18.10638 22.448268 1.772366 16.473183 6.993275 32.567743 15.556301 47.825238 3.724835 6.67298 10.655687 10.437723 17.807574 10.437723 3.367701 0 6.79066-0.837064 9.939373-2.609431C742.426043 626.01166 745.929844 613.582583 740.412177 603.742471zM182.429913 680.993902c-18.185174-44.269249-67.960835-104.595196-55.748698-205.474768 8.350179-68.976978 73.800843-116.807333 148.132782-132.205021 59.489906-12.322653 165.982312-22.861684 162.468279 68.49193-2.654456 69.022003-47.78533 74.863035-95.569636 132.205021-19.708877 23.64963-36.104289 84.419691-0.763386 132.030036 19.968797 26.901697 61.290925 61.763692 66.069765 114.857934 3.043313 33.819247-1.557472 63.857377-26.016537 88.13634-37.482683 37.207413-128.711454 38.332027-157.159366-22.830985C191.986569 787.713482 234.993059 808.950156 182.429913 680.993902zM428.653757 162.943093c-25.38618-3.720741-50.511417 24.275893-56.119135 62.534242s10.425444 72.288396 35.8106 76.009138c25.38618 3.720741 50.511417-24.275893 56.119135-62.534242C470.073098 200.694905 454.039937 166.663834 428.653757 162.943093zM323.447646 195.123003c-18.679431-2.738367-36.962843 16.46295-40.836057 42.886763s8.129144 50.064232 26.809599 52.8026c18.679431 2.738367 36.962843-16.46295 40.836057-42.886763S342.127078 197.86137 323.447646 195.123003zM236.763378 221.659379c-14.898315 0.431835-26.444279 19.132756-25.78834 41.769312s13.266142 40.637536 28.164456 40.205701c14.898315-0.431835 26.444279-19.132756 25.78834-41.769312C264.271896 239.228523 251.662717 221.227544 236.763378 221.659379zM176.845731 262.548648c-11.592013 2.936889-17.516956 19.028379-13.231349 35.942607 4.284583 16.913205 17.155728 28.244274 28.748764 25.307386 11.592013-2.936889 17.516956-19.028379 13.231349-35.942607S188.437743 259.611759 176.845731 262.548648zM147.638525 308.36002c-10.417257 0.563842-18.241456 12.480242-17.476023 26.614148 0.765433 14.134929 9.830903 25.13547 20.24816 24.571628 10.417257-0.563842 18.241456-12.479219 17.476023-26.614148C167.122275 318.79672 158.056805 307.796178 147.638525 308.36002zM830.53066 542.494525c-19.72525 42.409902-82.983993 41.630143-108.973924 15.830547-16.960277-16.835434-20.149922-37.663808-18.039865-61.113893 3.313465-36.815487 31.967062-60.989049 45.812395-79.642898 24.505114-33.012881 13.136182-75.150584-0.530073-91.550089-33.133631-39.760562-64.427358-43.810808-66.268286-91.670839-2.436492-63.3447 71.405283-56.037271 112.655779-47.491641 51.541887 10.676154 96.925516 43.842531 102.715383 91.670839 8.467859 69.950142-26.047236 111.779829-38.656415 142.475945C822.799582 509.72826 852.619748 495.001861 830.53066 542.494525zM663.683654 114.490567c3.888564 26.52819 21.310352 45.941332 38.913265 43.361577s28.720112-26.177196 24.831548-52.705386c-3.888564-26.52819-21.310352-45.941332-38.913265-43.361577C670.912289 64.36596 659.795091 87.963401 663.683654 114.490567zM742.875275 120.713292c2.686179 18.322297 15.362896 31.636534 28.315906 29.738301 12.951987-1.898233 21.275559-18.290575 18.58938-36.613896s-15.362896-31.636534-28.315906-29.738301C748.512668 85.998653 740.189096 102.390995 742.875275 120.713292zM802.041816 130.378419c-0.455371 15.696494 7.550976 28.66383 17.882276 28.962635 10.331299 0.299829 19.074428-12.18246 19.529799-27.878954s-7.550976-28.66383-17.882276-28.962635S802.497187 114.681926 802.041816 130.378419zM843.184865 148.400888c-2.970658 11.728112 1.136893 22.886243 9.174963 24.922622 8.03807 2.036379 16.963347-5.820566 19.934005-17.547655 2.970658-11.728112-1.136893-22.886243-9.174963-24.922622C855.080799 128.815831 846.155523 136.672776 843.184865 148.400888zM869.330338 179.655729c-0.531096 9.801227 4.894474 18.063401 12.117992 18.454304 7.223518 0.390903 13.509688-7.236821 14.040784-17.038048s-4.894474-18.063401-12.117992-18.454304C876.147604 162.226778 869.861434 169.855526 869.330338 179.655729z" fill="#1296db" /></svg>