<?xml version="1.0" standalone="no"?><!DOCTYPE svg PUBLIC "-//W3C//DTD SVG 1.1//EN" "http://www.w3.org/Graphics/SVG/1.1/DTD/svg11.dtd"><svg class="icon" width="200px" height="200.00px" viewBox="0 0 1024 1024" version="1.1" xmlns="http://www.w3.org/2000/svg"><path d="M930.005 523.111c-58.38 58.363-135.954 89.014-214.63 89.018-40.787 0.003-81.862-8.232-120.735-25.11l-62.625 62.608v108.941c0 12.661-10.27 22.925-22.93 22.925h-95.539l-0.002 95.514c0 12.66-10.269 22.923-22.93 22.923h-95.538v95.514c0 6.085-2.42 11.919-6.726 16.22a22.942 22.942 0 0 1-16.205 6.705h-0.028l-243.58-0.283c-0.114 0-0.267-0.04-0.35-0.002h-0.043a22.861 22.861 0 0 1-15.795-6.71 22.838 22.838 0 0 1-6.707-15.575v-0.009-0.016a19.98 19.98 0 0 1-0.01-0.655l0.26-125.568a22.927 22.927 0 0 1 6.716-16.162l424.23-424.124c-49.447-113.825-24.721-246.65 63.924-335.27C558.092 36.683 634.31 5.12 715.383 5.12c81.072 0 157.294 31.562 214.62 88.876 118.34 118.306 118.34 310.81 0.002 429.115z m-32.432-396.697c-48.666-48.651-113.37-75.446-182.19-75.446-68.821 0-133.524 26.795-182.19 75.444-78.615 78.59-98.02 198.125-48.28 297.445a22.918 22.918 0 0 1-4.29 26.472L51.732 879.109l-0.125 60.596 109.196-109.168c8.96-8.952 23.475-8.952 32.431 0 8.954 8.952 8.954 23.467 0 32.419L83.858 972.302l165.354 0.19v-95.485c0-12.661 10.269-22.925 22.93-22.925h95.538l0.002-95.514c0-12.66 10.27-22.923 22.932-22.923h95.537v-95.514a22.92 22.92 0 0 1 6.717-16.21l80.694-80.672a22.93 22.93 0 0 1 26.48-4.29c99.352 49.723 218.92 30.33 297.53-48.266 48.666-48.65 75.468-113.335 75.468-182.14 0-68.804-26.802-133.486-75.467-182.14zM777.304 354.34c-27.597 0-55.196-10.5-76.207-31.505-42.018-42.011-42.018-110.364 0-152.375 42.022-42.005 110.392-42.005 152.415 0 42.018 42.009 42.018 110.364 0 152.373-21.01 21.005-48.608 31.507-76.208 31.507z m43.779-151.46c-24.137-24.13-63.42-24.132-87.557 0-24.14 24.135-24.14 63.404 0 87.536 24.14 24.13 63.418 24.13 87.557 0 24.14-24.132 24.14-63.402 0-87.535zM258.09 798.123a22.871 22.871 0 0 1-16.215 6.714 22.869 22.869 0 0 1-16.213-6.714c-8.955-8.954-8.955-23.47 0-32.42l275.092-275.016c8.955-8.95 23.474-8.952 32.428 0.003 8.955 8.951 8.955 23.467 0 32.418L258.091 798.122z" fill="#717171" /></svg>