<?xml version="1.0" standalone="no"?><!DOCTYPE svg PUBLIC "-//W3C//DTD SVG 1.1//EN" "http://www.w3.org/Graphics/SVG/1.1/DTD/svg11.dtd"><svg class="icon" width="200px" height="200.00px" viewBox="0 0 1024 1024" version="1.1" xmlns="http://www.w3.org/2000/svg"><path d="M26.33253 616.92871c-8.998418 0-17.854004-4.713457-22.710294-13.140547-7.284434-12.569219-2.999473-28.566406 9.569747-35.85084l971.257815-564.329357c12.569219-7.284434 28.566406-2.999473 35.85084 9.569746 7.284434 12.569219 2.999473 28.566406-9.569746 35.85084l-971.257816 564.329357c-4.142129 2.428145-8.712754 3.570801-13.140546 3.570801m0 0" fill="#717171" /><path d="M870.612669 1024c-1.142656 0-2.285313-0.142832-3.427969-0.142832-14.426035-1.856816-24.567109-15.140195-22.567461-29.423399l127.120508-971.400647C973.594564 8.607087 986.877943-1.391155 1001.161146 0.465661c14.426035 1.856816 24.567109 14.997363 22.567461 29.423399l-127.120508 971.400647c-1.713984 12.997715-12.997715 22.710293-25.99543 22.710293m0 0M316.71005 666.062929c-1.42832 0-2.856641-0.142832-4.427793-0.428496L21.904737 616.500214c-14.283203-2.428145-23.852949-15.997188-21.567637-30.280391 2.428145-14.283203 15.854356-23.995781 30.28039-21.567637l290.377521 49.134219c14.283203 2.428145 23.852949 15.997188 21.567637 30.280391-2.14248 12.854883-13.283379 21.996133-25.852598 21.996133m0 0" fill="#717171" /><path d="M870.612669 1024c-5.713281 0-11.426563-1.856816-16.282852-5.713281L519.817199 753.047636c-11.426563-8.998418-13.283379-25.566934-4.284961-36.850664 8.998418-11.426563 25.566934-13.283379 36.850664-4.284961l334.369786 265.239083c11.426563 8.998418 13.283379 25.566934 4.284961 36.850664-4.999121 6.570273-12.712051 9.998242-20.42498 9.998242m0 0M434.974972 1005.431836c-14.568867 0-26.281094-15.140195-26.281094-29.709063l0.428496-315.801622c0-14.568867 11.712227-22.138965 26.281094-22.138965 14.426035 0 26.281094 5.998945 26.281094 20.567813l-0.428496 320.372247c-0.142832 14.568867-11.855059 26.70959-26.281094 26.70959m0 0" fill="#717171" /><path d="M435.260636 678.774979c-6.284609 0-12.569219-2.14248-17.56834-6.713105-10.855234-9.712578-11.712227-26.281094-1.999648-37.136328L978.165189 8.749919c9.712578-10.855234 26.281094-11.712227 37.136328-1.999649 10.855234 9.712578 11.712227 26.281094 1.999648 37.136329L454.828625 670.062225c-5.141953 5.856113-12.283555 8.712754-19.567989 8.712754m0 0" fill="#717171" /></svg>