<?xml version="1.0" standalone="no"?><!DOCTYPE svg PUBLIC "-//W3C//DTD SVG 1.1//EN" "http://www.w3.org/Graphics/SVG/1.1/DTD/svg11.dtd"><svg class="icon" width="200px" height="200.00px" viewBox="0 0 1024 1024" version="1.1" xmlns="http://www.w3.org/2000/svg"><path d="M742.122 414.096C742.122 195.914 594.9 146 512 146S281.832 195.914 281.832 414.096v43.736s-79.194 162.504-79.194 254.508c0 24.34 6.222 37.514 10.294 37.514 4.164 0 32.986-17.706 63.96-75.854 0 0-6.59 80.43 69.676 145.212 0 0-64.736 18.116-64.736 43.234 0 25.116 149.236 15.782 230.168 0 81.94 15.554 230.122 25.16 230.122 0 0-25.164-64.736-43.234-64.736-43.234C753.7 754.43 747.11 674 747.11 674c30.926 58.15 59.794 75.854 63.912 75.854 4.072 0 10.34-13.176 10.34-37.514 0-92.004-79.24-254.508-79.24-254.508v-43.736z" fill="#ffffff" /></svg>