<?xml version="1.0" standalone="no"?><!DOCTYPE svg PUBLIC "-//W3C//DTD SVG 1.1//EN" "http://www.w3.org/Graphics/SVG/1.1/DTD/svg11.dtd"><svg class="icon" width="200px" height="200.00px" viewBox="0 0 1024 1024" version="1.1" xmlns="http://www.w3.org/2000/svg"><path d="M975.993636 873.946472 776.518512 686.833911c115.098411-158.102854 97.100502-380.864334-49.206702-518.098905C568.83238 20.091594 319.883471 28.052916 171.253362 186.518021 22.60995 344.973916 30.571273 593.919754 189.037401 742.576469c146.30311 137.240711 369.759415 140.965545 520.184403 16.004509l199.475124 187.111538c19.813255 18.585287 50.940183 17.58961 69.524446-2.223644 18.585287-19.812231 17.58961-50.939159-2.223644-69.523423L975.993636 873.946472zM234.446613 694.146457c-131.714857-123.540687-138.333602-330.49311-14.782681-462.2182C343.224062 100.213399 550.178531 93.594655 681.878039 217.145575c131.730207 123.56627 138.348951 330.513576 14.782681 462.2182C573.125149 811.088866 366.17068 817.70761 234.446613 694.146457L234.446613 694.146457zM256.31569 670.833495" fill="#7dd67f" /><path d="M320.375681 323.493695c-9.859555-9.858532-25.833365-9.858532-35.693944 0-34.514071 34.514071-53.501518 80.372515-53.501518 129.183198 0 48.789193 18.986423 94.676289 53.501518 129.139196 4.931313 4.929266 11.388375 7.390317 17.847483 7.390317 6.459109 0 12.917194-2.461051 17.847483-7.390317 9.866718-9.866718 9.866718-25.864064 0-35.700083-24.947182-24.947182-38.706557-58.135048-38.706557-93.439112 0-35.3276 13.754259-68.50728 38.706557-93.483114C330.2424 349.326037 330.2424 333.352227 320.375681 323.493695L320.375681 323.493695z" fill="#7dd67f" /><path d="M294.688649 343.842139" fill="#7dd67f" /></svg>