<?xml version="1.0" standalone="no"?><!DOCTYPE svg PUBLIC "-//W3C//DTD SVG 1.1//EN"
  "http://www.w3.org/Graphics/SVG/1.1/DTD/svg11.dtd">
<svg class="icon" width="200px" height="200px" viewBox="0 0 1024 1024" version="1.1"
     xmlns="http://www.w3.org/2000/svg">
  <path
    d="M301.789904 127.535925c19.717561 0 35.68791 15.970349 35.68791 35.68791l0 71.374859c0 19.699296-15.970349 35.68791-35.68791 35.68791S266.101993 254.298951 266.101993 234.598694l0-71.374859C266.101993 143.506274 282.072343 127.535925 301.789904 127.535925z"
    fill="#ffffff"/>
  <path
    d="M704.504571 127.535925c19.717561 0 35.68791 15.970349 35.68791 35.68791l0 71.374859c0 19.699296-15.970349 35.68791-35.68791 35.68791-19.717561 0-35.68791-15.987653-35.68791-35.68791l0-71.374859C668.817622 143.506274 684.78701 127.535925 704.504571 127.535925z"
    fill="#ffffff"/>
  <path
    d="M446.407459 793.108142c-0.123048 0-0.246097-0.000961-0.369145-0.001923-8.753747-0.099016-17.10278-3.704913-23.174455-10.011149-0.701761-0.728678-71.055702-73.746427-149.618324-151.74091-12.810502-12.717255-12.885485-33.412474-0.16823-46.222977 12.717255-12.811464 33.412474-12.886446 46.222977-0.16823 51.897627 51.522714 100.241268 100.892079 127.553228 128.961557l221.842025-220.219323c12.812425-12.717255 33.505722-12.640349 46.222977 0.170153 12.717255 12.810502 12.640349 33.505722-0.170153 46.222977l-245.315449 243.520671C463.307402 789.700276 455.028545 793.108142 446.407459 793.108142z"
    fill="#ffffff"/>
  <path
    d="M915.638492 326.462089 915.638492 283.213425c0-48.554169-39.360139-87.897004-87.897004-87.897004 0 0-20.057867 0-52.737818 0l0 35.159186c0 38.832376-31.484074 70.317411-70.317411 70.317411-38.832376 0-70.317411-31.485035-70.317411-70.317411L634.368849 195.316421c-82.676095 0-179.116317 0-263.691012 0l0 35.159186c0 38.832376-31.485035 70.317411-70.317411 70.317411S230.043015 269.307984 230.043015 230.475608L230.043015 195.316421c-42.893938 0-70.317411 0-70.317411 0-48.536865 0-87.897004 39.342835-87.897004 87.897004l0 87.897004 0 47.415009 0.310505 0 0 532.339532 843.716644 0L915.85575 326.462089 915.638492 326.462089zM121.50078 901.501373 121.50078 418.525438l744.991373 0 0 482.975935L121.50078 901.501373z"
    fill="#ffffff"/>
</svg>
