<?xml version="1.0" standalone="no"?><!DOCTYPE svg PUBLIC "-//W3C//DTD SVG 1.1//EN" "http://www.w3.org/Graphics/SVG/1.1/DTD/svg11.dtd"><svg class="icon" width="200px" height="200.00px" viewBox="0 0 1024 1024" version="1.1" xmlns="http://www.w3.org/2000/svg"><path d="M758.976 481.837s80.596-237.549-248.389-121.602c0 0 24.508-106.519-27.809-141.869s-158.837-3.771-308.247 134.329c0 0-188.53 168.263-156.953 319.559s214.925 260.172 484.052 235.663c280.439-25.923 554.282-321.444 257.345-426.079zM443.186 837.685c-160.723 22.154-303.063-44.778-317.201-149.882-14.141-104.636 104.636-207.383 265.356-229.536 160.723-22.154 303.063 44.778 317.201 149.882 14.141 104.636-104.636 207.383-265.356 229.536z" fill="#ffffff" /><path d="M349.863 541.222c-83.425 33.465-128.671 116.89-100.864 187.117 27.809 69.756 118.304 99.922 201.728 66.458 83.425-33.465 128.671-116.89 100.864-187.117-28.278-69.756-118.304-99.449-201.728-66.458zM366.831 728.339c-21.681 10.839-46.661 4.242-56.087-14.141-8.955-18.382 0.944-41.948 23.094-52.789 21.681-10.839 46.661-4.242 56.087 14.141 8.955 18.382-1.414 41.948-23.094 52.789zM823.547 428.106c2.829 0.944 5.655 1.414 8.484 1.414 13.197 0 24.98-8.484 28.751-21.681 14.61-50.432 9.899-92.38-14.141-125.845-41.007-56.56-122.075-59.858-125.845-60.331-16.497-0.944-30.163 12.255-31.108 28.751-0.471 16.497 12.255 30.163 28.751 31.108 0.471 0 55.616 2.829 79.184 35.349 12.725 17.439 14.141 42.42 5.185 73.999-4.242 16.025 4.714 32.522 20.738 37.235z" fill="#ffffff" /><path d="M950.804 191.498c-90.023-103.22-252.631-91.439-259.701-90.966-16.497 1.414-28.751 15.553-27.338 32.051 1.414 16.497 15.553 28.751 32.051 27.338 1.414 0 139.984-9.899 210.212 70.7 41.007 47.604 51.846 118.773 31.108 212.569-3.771 16.025 6.601 32.051 22.624 35.821 2.356 0.471 4.242 0.471 6.601 0.471 13.669 0 25.923-9.426 29.222-23.568 24.98-112.647 9.899-201.728-44.778-264.415z" fill="#ffffff" /></svg>