<?xml version="1.0" standalone="no"?><!DOCTYPE svg PUBLIC "-//W3C//DTD SVG 1.1//EN" "http://www.w3.org/Graphics/SVG/1.1/DTD/svg11.dtd"><svg class="icon" width="200px" height="200.00px" viewBox="0 0 1024 1024" version="1.1" xmlns="http://www.w3.org/2000/svg"><path d="M928.319771 893.94057 884.485167 893.94057 884.485167 892.829455C883.76621 892.916601 883.112613 893.265186 882.371869 893.265186 870.345676 893.265186 860.585287 883.504798 860.585287 871.478604 860.585287 859.452411 870.345676 849.692022 882.371869 849.692022 883.570131 849.692022 884.5941 850.193114 885.748789 850.367406L906.402469 850.367406C906.402469 850.367406 950.215286 850.367406 950.215286 806.794242 950.215286 771.347473 928.319771 763.221078 906.402469 741.434496 884.485167 719.647914 839.800888 676.924426 796.837748 632.501585 771.674245 606.488406 774.942233 567.141839 774.942233 567.141839L774.942233 566.466455 773.438959 566.466455 773.438959 375.746716C773.438959 240.430254 663.743518 130.734814 528.427056 130.734814L495.572891 130.734814C360.256429 130.734814 250.560989 240.430254 250.560989 375.746716L250.560989 566.466455 249.057714 566.466455C249.057714 566.466455 252.325702 605.813022 227.162199 631.826201 184.19906 676.249042 139.51478 718.97253 117.597478 740.759112 95.680177 762.545694 73.784662 770.672089 73.784662 806.118858 73.784662 849.692022 117.597478 849.692022 117.597478 849.692022L403.067063 849.692022 642.719466 849.692022 753.024931 849.692022 753.024931 849.975248C764.37574 850.715992 773.438959 859.931716 773.438959 871.478604 773.438959 883.025493 764.37574 892.241217 753.024931 892.981961L753.024931 893.265186 642.370881 893.265186C640.562594 953.701165 591.303132 1002.198097 530.431422 1002.198097L515.355107 1002.198097C454.505183 1002.198097 405.223935 953.701165 403.415648 893.265186L139.51478 893.265186 95.680177 893.265186C8.054543 871.478604 29.950058 762.545694 51.86736 740.759112 73.784662 718.97253 205.244898 610.039619 205.244898 588.253037 205.244898 566.466455 205.244898 522.893291 205.244898 522.893291L206.987824 522.893291 206.987824 373.001606C206.987824 230.822372 310.888034 113.240188 446.858093 91.192167 447.969209 52.717063 479.341887 21.801903 518.100217 21.801903L527.686313 21.801903C567.141813 21.801903 599.146302 53.784606 599.146302 93.261892L599.146302 95.63663C724.135923 126.181418 817.012123 238.600181 817.012123 373.001606L817.012123 523.568675 818.755049 523.568675C818.755049 523.568675 818.755049 567.141839 818.755049 588.928421 818.755049 610.715003 950.215286 719.647914 972.132587 741.434496 994.049889 763.221078 1015.945404 872.153988 928.319771 893.94057ZM446.640227 897.622503C446.640227 931.304559 473.960601 958.624933 507.642657 958.624933L538.143872 958.624933C571.825928 958.624933 599.146302 931.304559 599.146302 897.622503L599.146302 893.265186 446.640227 893.265186 446.640227 897.622503ZM533.786556 65.375067 511.999974 65.375067C499.97378 65.375067 490.213391 87.161649 490.213391 87.161649L555.573138 87.161649C555.573138 75.135456 545.812749 65.375067 533.786556 65.375067Z" fill="#ffffff" /></svg>