<?xml version="1.0" standalone="no"?><!DOCTYPE svg PUBLIC "-//W3C//DTD SVG 1.1//EN" "http://www.w3.org/Graphics/SVG/1.1/DTD/svg11.dtd"><svg t="1501686048831" class="icon" style="" viewBox="0 0 1024 1024" version="1.1" xmlns="http://www.w3.org/2000/svg" p-id="2363" xmlns:xlink="http://www.w3.org/1999/xlink" width="32" height="32"><defs><style type="text/css"></style></defs><path d="M512 190.171429c-87.771429 0-153.6 73.142857-153.6 160.914286C358.4 438.857143 424.228571 512 512 512c87.771429 0 153.6-73.142857 153.6-160.914286C665.6 263.314286 599.771429 190.171429 512 190.171429L512 190.171429zM512 438.857143C460.8 438.857143 424.228571 402.285714 424.228571 351.085714c0-51.2 36.571429-87.771429 87.771429-87.771429 51.2 0 87.771429 36.571429 87.771429 87.771429C599.771429 402.285714 563.2 438.857143 512 438.857143L512 438.857143zM877.714286 380.342857C877.714286 168.228571 716.8 0 512 0 307.2 0 146.285714 168.228571 146.285714 380.342857c0 160.914286 226.742857 490.057143 321.828571 621.714286C475.428571 1016.685714 497.371429 1024 512 1024c14.628571 0 36.571429-7.314286 43.885714-21.942857C650.971429 870.4 877.714286 541.257143 877.714286 380.342857L877.714286 380.342857zM519.314286 943.542857 512 950.857143l-7.314286-7.314286C321.828571 687.542857 212.114286 475.428571 212.114286 380.342857c0-168.228571 138.971429-314.514286 299.885714-314.514286 168.228571 0 299.885714 138.971429 299.885714 314.514286C811.885714 475.428571 702.171429 687.542857 519.314286 943.542857L519.314286 943.542857z" p-id="2364"></path></svg>