<?xml version="1.0" standalone="no"?><!DOCTYPE svg PUBLIC "-//W3C//DTD SVG 1.1//EN" "http://www.w3.org/Graphics/SVG/1.1/DTD/svg11.dtd"><svg t="1501654068094" class="icon" style="" viewBox="0 0 1068 1024" version="1.1" xmlns="http://www.w3.org/2000/svg" p-id="2341" xmlns:xlink="http://www.w3.org/1999/xlink" width="33.375" height="32"><defs><style type="text/css"></style></defs><path d="M197.049765 451.079027c16.737278 9.421964 30.456489 5.564435 43.452163 5.576428 258.378476 0.283818 516.756953 0.68756 775.131431-0.451711 28.973439-0.127918 37.555941 7.275339 36.880374 36.60455-1.718899 74.800081-0.271826 74.836058-75.179838 74.836058-244.843147 0-489.686295 0-734.529442 0-13.447385 0-26.898768 0-41.601349 0 1.551006 14.606643 12.515982 19.067785 20.023173 25.723521 124.168455 110.065489 248.161022 220.342843 373.240893 329.368998 18.708015 16.305554 20.906607 25.11591 0.451711 40.821849-21.310348 16.361518-38.555301 49.196484-59.877641 51.279149-22.345685 2.186599-39.486704-32.347278-58.758358-50.8874C325.647382 819.0433 175.711435 673.408598 24.78812 528.805234c-15.25023-14.61064-12.400056-20.954576 1.215221-34.058181C189.902344 337.008104 353.35763 178.801455 516.153339 19.923237c15.40613-15.034369 24.336409-14.138942 37.679861 0.659577 18.807951 20.858637 53.905467 39.562655 54.928811 60.509236 1.087303 22.325698-36.268765 39.007011-57.251323 57.619088-111.260724 98.70077-222.933183 196.937837-334.481723 295.314814C210.892897 439.438485 204.592933 444.655143 197.049765 451.079027z" p-id="2342" fill="#ffffff"></path></svg>