<?xml version="1.0" standalone="no"?><!DOCTYPE svg PUBLIC "-//W3C//DTD SVG 1.1//EN" "http://www.w3.org/Graphics/SVG/1.1/DTD/svg11.dtd"><svg t="1501686134238" class="icon" style="" viewBox="0 0 1024 1024" version="1.1" xmlns="http://www.w3.org/2000/svg" p-id="6386" xmlns:xlink="http://www.w3.org/1999/xlink" width="32" height="32"><defs><style type="text/css"></style></defs><path d="M256 640c-46.933333 0-85.333333 38.4-85.333333 85.333333s38.4 85.333333 85.333333 85.333334 85.333333-38.4 85.333333-85.333334-38.4-85.333333-85.333333-85.333333z m0 128c-23.466667 0-42.666667-19.2-42.666667-42.666667s19.2-42.666667 42.666667-42.666666 42.666667 19.2 42.666667 42.666666-19.2 42.666667-42.666667 42.666667zM768 640c-46.933333 0-85.333333 38.4-85.333333 85.333333s38.4 85.333333 85.333333 85.333334 85.333333-38.4 85.333333-85.333334-38.4-85.333333-85.333333-85.333333z m0 128c-23.466667 0-42.666667-19.2-42.666667-42.666667s19.2-42.666667 42.666667-42.666666 42.666667 19.2 42.666667 42.666666-19.2 42.666667-42.666667 42.666667z" p-id="6387"></path><path d="M817.066667 25.6C727.466667 8.533333 622.933333 0 512 0S296.533333 8.533333 206.933333 25.6C136.533333 40.533333 85.333333 102.4 85.333333 172.8V960c0 36.266667 27.733333 64 64 64h98.133334c27.733333 0 51.2-17.066667 59.733333-44.8l27.733333-83.2h354.133334l27.733333 83.2c8.533333 25.6 34.133333 44.8 59.733333 44.8H874.666667c36.266667 0 64-27.733333 64-64V172.8c0-70.4-51.2-132.266667-121.6-147.2z m-601.6 42.666667C275.2 57.6 375.466667 42.666667 512 42.666667s236.8 14.933333 296.533333 25.6c51.2 10.666667 87.466667 53.333333 87.466667 104.533333V554.666667H128V172.8c0-51.2 36.266667-93.866667 87.466667-104.533333zM874.666667 981.333333h-98.133334c-8.533333 0-17.066667-6.4-19.2-14.933333L718.933333 853.333333H305.066667l-38.4 113.066667c-2.133333 8.533333-10.666667 14.933333-19.2 14.933333H149.333333c-12.8 0-21.333333-8.533333-21.333333-21.333333V597.333333h768v362.666667c0 12.8-8.533333 21.333333-21.333333 21.333333z" p-id="6388"></path></svg>