<?xml version="1.0" standalone="no"?><!DOCTYPE svg PUBLIC "-//W3C//DTD SVG 1.1//EN" "http://www.w3.org/Graphics/SVG/1.1/DTD/svg11.dtd"><svg t="1501686117333" class="icon" style="" viewBox="0 0 1024 1024" version="1.1" xmlns="http://www.w3.org/2000/svg" p-id="5691" xmlns:xlink="http://www.w3.org/1999/xlink" width="32" height="32"><defs><style type="text/css"></style></defs><path d="M853.069576 258.482424a14.258424 14.258424 0 0 0-17.423515-10.115879C689.477818 287.402667 368.314182 287.340606 187.205818 248.242424a14.320485 14.320485 0 0 0-5.988848 27.927273c14.413576 3.10303 29.851152 5.895758 45.723151 8.548848v63.286303a14.273939 14.273939 0 0 0 14.242909 14.30497h41.890909l-27.663515 413.928727a14.289455 14.289455 0 0 0 14.242909 15.049697h113.927758a14.30497 14.30497 0 0 0 14.242909-15.049697l-21.721212-299.55103h107.147636v42.899394a14.273939 14.273939 0 0 0 14.242909 14.30497h56.956122a14.273939 14.273939 0 0 0 14.242909-14.30497v-42.899394h92.904727l-21.721212 299.55103a14.289455 14.289455 0 0 0 14.242909 15.049697h113.927757a14.30497 14.30497 0 0 0 14.24291-15.049697l-27.679031-413.944242h27.710061a14.273939 14.273939 0 0 0 14.242909-14.30497v-61.936485c16.601212-3.10303 32.411152-6.330182 46.390303-10.069333a14.30497 14.30497 0 0 0 10.115879-17.501091z m-568.413091 504.242424L305.648485 476.687515h41.890909l20.992 285.990788h-83.874909zM307.2 448.093091l4.499394-85.798788h29.928727l4.499394 85.798788H307.2z m233.099636 57.204364h-28.547878v-28.60994h28.485818v28.60994z m122.864485-57.204364H374.613333l-4.499394-85.798788h297.487516z m6.004364 314.585212l20.992-285.990788h41.890909l20.992 285.990788H669.168485z m22.465939-314.585212l4.499394-85.798788H726.109091l4.499394 85.798788h-38.974061z m76.443152-114.393212H255.410424V289.202424a1979.826424 1979.826424 0 0 0 269.498182 17.392485 1702.337939 1702.337939 0 0 0 243.184485-15.763394v42.868364z" p-id="5692"></path></svg>