<?xml version="1.0" standalone="no"?><!DOCTYPE svg PUBLIC "-//W3C//DTD SVG 1.1//EN" "http://www.w3.org/Graphics/SVG/1.1/DTD/svg11.dtd"><svg t="1501692980771" class="icon" style="" viewBox="0 0 1024 1024" version="1.1" xmlns="http://www.w3.org/2000/svg" p-id="10917" xmlns:xlink="http://www.w3.org/1999/xlink" width="32" height="32"><defs><style type="text/css"></style></defs><path d="M745.837 639.522c29.905 0 54.233-24.328 54.233-54.233V119.626c0-29.906-24.328-54.235-54.233-54.235H120.098c-29.905 0-54.234 24.33-54.234 54.235v465.663c0 29.905 24.33 54.233 54.234 54.233h54.7l-32.84 106.175a30.7 30.7 0 0 0 45.324 35.272L418.961 639.52h326.876z m-351.504-56.9L224.616 686.24l21.14-68.345a30.698 30.698 0 0 0-29.329-39.77h-89.164V126.791h611.409v451.334H410.33a30.695 30.695 0 0 0-15.997 4.496z" fill="" p-id="10918"></path><path d="M927.577 280.214c-16.954 0-30.7 13.745-30.7 30.7v430.412h-64.153a30.701 30.701 0 0 0-29.924 37.557l15.582 67.99-119.583-98.54a30.699 30.699 0 0 0-19.522-7.007H413.773c-16.954 0-30.7 13.745-30.7 30.7s13.746 30.698 30.7 30.698h254.485L848.924 951.6a30.674 30.674 0 0 0 19.527 7.008 30.65 30.65 0 0 0 16.13-4.584 30.699 30.699 0 0 0 13.79-32.974l-27.118-118.324h37.7c14.71 0 28.495-7.22 37.82-19.807 7.418-10.012 11.503-22.807 11.503-36.028V310.913c0-16.954-13.745-30.699-30.7-30.699zM432.967 170.168c-59.035 0-101.882 39.347-101.882 93.56 0 16.954 13.745 30.699 30.699 30.699s30.699-13.745 30.699-30.7c0-30.61 33.723-32.161 40.484-32.161 22.322 0 40.484 18.16 40.484 40.483 0 0.113-0.292 11.53-25.523 35.736-15.747 15.105-32.03 26.227-32.165 26.32a30.696 30.696 0 0 0-13.487 24.749l-1.313 59.619c-0.373 16.95 13.066 30.994 30.017 31.367 0.23 0.005 0.46 0.007 0.688 0.007 16.64 0 30.31-13.303 30.68-30.023l0.98-44.505c7.316-5.648 16.85-13.454 26.409-22.562 30.357-28.925 45.113-55.324 45.113-80.708 0-56.177-45.705-101.881-101.883-101.881zM404.163 510.753a34.016 34.016 0 1 0 69.618 0 34.016 34.016 0 1 0-69.618 0z" fill="" p-id="10919"></path></svg>