<?xml version="1.0" standalone="no"?><!DOCTYPE svg PUBLIC "-//W3C//DTD SVG 1.1//EN" "http://www.w3.org/Graphics/SVG/1.1/DTD/svg11.dtd"><svg t="1501686086170" class="icon" style="" viewBox="0 0 1085 1024" version="1.1" xmlns="http://www.w3.org/2000/svg" p-id="3737" xmlns:xlink="http://www.w3.org/1999/xlink" width="33.90625" height="32"><defs><style type="text/css"></style></defs><path d="M1024 903.5008H301.17888c0-33.24928-26.98752-60.2368-60.2368-60.2368-33.28 0-60.2368 26.9824-60.2368 60.2368H60.2368C26.9568 903.5008 0 876.544 0 843.264V180.70528c0-33.28 26.9568-60.2368 60.2368-60.2368h120.46848c0 33.2544 26.9568 60.2112 60.2368 60.2112 33.24928 0 60.2368-26.9568 60.2368-60.2112H1024c33.24928 0 60.2368 26.9568 60.2368 60.2368V843.264c0 33.28-26.9824 60.2368-60.2368 60.2368z m0-722.82624H344.69888c-20.87424 35.87072-59.27424 60.2368-103.7568 60.2368S158.0544 216.54528 137.18528 180.67456h-76.9536V843.264h76.9536c20.87424-35.84 59.27424-60.2368 103.7568-60.2368S323.82464 807.424 344.69888 843.264H1024V180.67456zM496.94208 391.5008h391.5264a15.06304 15.06304 0 0 1 15.06304 15.0528v30.12096a15.06304 15.06304 0 0 1-15.06304 15.05792H496.9472a15.06304 15.06304 0 0 1-15.05792-15.0528v-30.12096a15.06304 15.06304 0 0 1 15.0528-15.05792z m0 180.70528h391.5264a15.06304 15.06304 0 0 1 15.06304 15.05792v30.14656a15.03744 15.03744 0 0 1-15.06304 15.03232H496.9472a15.03744 15.03744 0 0 1-15.05792-15.03232V587.264a15.06304 15.06304 0 0 1 15.0528-15.05792zM256 722.7904h-30.11584a15.06304 15.06304 0 0 1-15.06304-15.06304v-150.58432a15.06304 15.06304 0 0 1 15.06304-15.06304H256a15.06304 15.06304 0 0 1 15.05792 15.06304v150.58432A15.06304 15.06304 0 0 1 256 722.79552z m0-240.91136h-30.11584a15.06304 15.06304 0 0 1-15.06304-15.06304V316.2112a15.06304 15.06304 0 0 1 15.06304-15.05792H256a15.06304 15.06304 0 0 1 15.05792 15.0528v150.62016A15.06304 15.06304 0 0 1 256 481.88416z" fill="#272636" p-id="3738"></path></svg>