<?xml version="1.0" standalone="no"?><!DOCTYPE svg PUBLIC "-//W3C//DTD SVG 1.1//EN" "http://www.w3.org/Graphics/SVG/1.1/DTD/svg11.dtd"><svg t="1501686082105" class="icon" style="" viewBox="0 0 1084 1024" version="1.1" xmlns="http://www.w3.org/2000/svg" p-id="3619" xmlns:xlink="http://www.w3.org/1999/xlink" width="33.875" height="32"><defs><style type="text/css"></style></defs><path d="M971.858 866.253H327.25c0-29.65-24.07-53.714-53.72-53.714-29.68 0-53.718 24.064-53.718 53.714H112.374c-29.68 0-53.72-24.033-53.72-53.714V221.67c0-29.675 24.04-53.714 53.72-53.714h107.438c0 29.65 24.038 53.689 53.719 53.689 29.65 0 53.719-24.039 53.719-53.689h644.613c29.65 0 53.714 24.039 53.714 53.714V812.54c0 29.68-24.07 53.714-53.72 53.714z m0-644.608H366.06c-18.617 31.99-52.86 53.719-92.53 53.719s-73.917-21.73-92.528-53.72H112.38V812.54h68.623c18.617-31.964 52.86-53.72 92.529-53.72s73.917 21.756 92.529 53.72h605.798V221.645zM501.827 409.656h349.168a13.435 13.435 0 0 1 13.43 13.43v26.86a13.435 13.435 0 0 1-13.43 13.43H501.827a13.435 13.435 0 0 1-13.43-13.43v-26.86a13.44 13.44 0 0 1 13.43-13.43z m0 161.152h349.168a13.435 13.435 0 0 1 13.43 13.43v26.88a13.414 13.414 0 0 1-13.43 13.404H501.827a13.414 13.414 0 0 1-13.43-13.404v-26.88a13.44 13.44 0 0 1 13.43-13.43zM286.96 705.101H260.1a13.43 13.43 0 0 1-13.43-13.425V557.384a13.435 13.435 0 0 1 13.43-13.43h26.86a13.435 13.435 0 0 1 13.43 13.43v134.292a13.43 13.43 0 0 1-13.43 13.425z m0-214.84H260.1a13.435 13.435 0 0 1-13.43-13.43V342.508a13.435 13.435 0 0 1 13.43-13.43h26.86a13.435 13.435 0 0 1 13.43 13.43v134.318a13.435 13.435 0 0 1-13.43 13.434z" fill="" p-id="3620"></path></svg>