<?xml version="1.0" standalone="no"?><!DOCTYPE svg PUBLIC "-//W3C//DTD SVG 1.1//EN" "http://www.w3.org/Graphics/SVG/1.1/DTD/svg11.dtd"><svg t="1501686151507" class="icon" style="" viewBox="0 0 1024 1024" version="1.1" xmlns="http://www.w3.org/2000/svg" p-id="7168" xmlns:xlink="http://www.w3.org/1999/xlink" width="32" height="32"><defs><style type="text/css"></style></defs><path d="M521.721195 145.101629c-202.610173 0-366.949535 164.237034-366.949535 366.949535S319.008694 879.0007 521.721195 879.0007s366.949535-164.237034 366.949535-366.949536-164.339362-366.949535-366.949535-366.949535z m0 695.218947C340.395323 840.320576 193.451784 693.274708 193.451784 511.948836s146.94354-328.269411 328.269411-328.269412 328.269411 146.94354 328.269412 328.269412S703.047067 840.320576 521.721195 840.320576z" p-id="7169"></path><path d="M519.879285 647.022284c-11.870091 0-21.488958 9.618867-21.488958 21.488958s9.618867 21.488958 21.488958 21.488958 21.488958-9.618867 21.488957-21.488958-9.618867-21.488958-21.488957-21.488958zM519.879285 614.584191c10.64215 0 19.340062-10.437494 19.340061-27.01469v-232.2854c0-16.679524-8.595583-27.01469-19.340061-27.01469-10.64215 0-19.340062 10.437494-19.340062 27.01469v232.2854c0 16.577196 8.697911 27.01469 19.340062 27.01469z" p-id="7170"></path></svg>