<?xml version="1.0" standalone="no"?><!DOCTYPE svg PUBLIC "-//W3C//DTD SVG 1.1//EN" "http://www.w3.org/Graphics/SVG/1.1/DTD/svg11.dtd"><svg t="1501465854700" class="icon" style="" viewBox="0 0 1024 1024" version="1.1" xmlns="http://www.w3.org/2000/svg" p-id="4284" xmlns:xlink="http://www.w3.org/1999/xlink" width="200" height="200"><defs><style type="text/css"></style></defs><path d="M911.700843 671.440315c0.322341-4.816702 0.48914-9.652847 0.48914-14.503319-0.002047-115.068735-90.258677-208.68488-201.194278-208.68488-110.938672 0-201.191208 93.616144-201.191208 208.685903 0 33.93488 8.033977 67.351967 23.323195 97.477079l22.602787 37.539988 57.012482 90.973968 0.052189-0.033769c1.363044 2.580778 6.40385 10.665921 25.399483 41.021276 6.375198 10.18292 12.758582 20.35356 17.574261 27.976168 2.408863 3.816932 4.427846 6.998391 5.854335 9.225105 1.055029 1.645476 1.75497 2.737344 2.294252 3.458775l-0.00614 0.005117 31.028691 49.513694c3.63376 5.783727 9.68764 9.237385 16.196891 9.237385 6.53688 0 12.594853-3.463891 16.205077-9.258874l154.98484-247.824295 0.065492 0 0.870834-1.49198c9.156544-15.703657 16.2061-32.543184 21.061688-50.050929L911.700843 671.440315zM850.529645 742.134401 711.130781 964.996165 571.8936 742.839459c-15.107069-25.891693-23.091928-55.595202-23.091928-85.899392 0-91.75168 72.272024-166.455079 161.293523-166.955476l0.005117 0.004093 0.902556 0c89.431845 0 162.188916 74.897827 162.188916 166.959569C873.191784 687.244256 865.338932 716.728778 850.529645 742.134401z" fill="#ffffff" p-id="4285"></path><path d="M710.998775 565.819766c-45.013193 0-81.632205 35.662221-81.632205 79.493495 0 43.845601 36.619012 79.512938 81.632205 79.512938 45.010123 0 81.630159-35.667338 81.630159-79.512938C792.62791 601.480964 756.008898 565.819766 710.998775 565.819766zM759.003092 645.325541c0 25.207102-21.533432 45.713134-48.003294 45.713134-26.473955 0-48.01148-20.506033-48.01148-45.713134s21.537526-45.714158 48.01148-45.714158C737.46966 599.611383 759.003092 620.11844 759.003092 645.325541z" fill="#ffffff" p-id="4286"></path><path d="M998.211149 49.480948 786.729573 0.727571c-4.544503-1.019213-9.315156-0.556679-13.604856 1.376347L519.650749 118.061906 285.93273 20.609387c-5.047969-2.12643-10.736529-2.210341-15.869433-0.192382L24.71745 116.022457c-8.15268 3.162016-13.517875 11.035334-13.517875 19.780509l0 673.210635c0 7.002484 3.455705 13.580297 9.252735 17.505699 5.79089 3.927449 13.134135 4.817726 19.689435 2.25025l237.388619-92.51302 234.400564 97.753371c2.610454 1.105171 5.387707 1.632173 8.169053 1.632173 3.012613 0 6.028297-0.635473 8.827039-1.933025l29.925566-13.68979 2.617617-1.198292c-0.010233-0.01535-0.019443-0.029676-0.028653-0.045025l13.123902-6.098905-14.922874-39.564088-20.487613 9.29162c-0.004093-0.008186-0.00921-0.01535-0.013303-0.022513l-2.89084 1.324158-3.77293 1.727341-0.01535 0.007163 0 0-12.789281 5.855358-233.740532-97.499591c-2.607384-1.098008-5.389754-1.632173-8.1711-1.632173-2.606361 0-5.216815 0.469698-7.697309 1.444908L53.637106 777.973654 53.637106 150.312424l223.870744-87.227644 234.398518 97.708346c5.455245 2.295276 11.631922 2.211365 16.998139-0.294712L784.242939 43.692105l187.994652 43.35032 0 629.628024-57.413618-13.225209c0 0-3.791349 3.790326-5.106298 6.351662-1.169639 11.740392-3.270487 23.496134-7.563256 34.277688l5.29254 1.219781 81.239256 18.712177c6.299473 1.407046 12.919241-0.061398 17.972327-4.072759 5.071506-4.006244 7.995091-10.143011 7.995091-16.588817L1014.653633 70.151733C1014.673076 60.263525 1007.842507 51.691289 998.211149 49.480948z" fill="#ffffff" p-id="4287"></path><path d="M900.918265 700.210569 891.325793 741.529627 918.170185 747.725746 926.647253 706.127326Z" fill="#ffffff" p-id="4288"></path><path d="M786.684548 376.461047c11.709693 0 21.219277-9.485025 21.219277-21.219277l0-215.938074c0-11.735275-9.509585-21.219277-21.219277-21.219277-11.710716 0-21.218254 9.484002-21.218254 21.219277l0 215.938074C765.465271 366.976022 774.972808 376.461047 786.684548 376.461047z" fill="#ffffff" p-id="4289"></path><path d="M541.293675 415.304727 541.293675 252.331959c0-11.734252-9.505491-21.217231-21.217231-21.217231-11.709693 0-21.218254 9.484002-21.218254 21.217231l0 162.972768c0 11.735275 9.508561 21.220301 21.218254 21.220301C531.788184 436.525028 541.293675 427.040003 541.293675 415.304727z" fill="#ffffff" p-id="4290"></path><path d="M277.785166 148.425448c-11.710716 0-21.218254 9.485025-21.218254 21.219277l0 427.230338c0 11.734252 9.507538 21.218254 21.218254 21.218254s21.219277-9.485025 21.219277-21.218254l0-427.230338C299.004443 157.910473 289.496905 148.425448 277.785166 148.425448z" fill="#ffffff" p-id="4291"></path></svg>