<?xml version="1.0" standalone="no"?><!DOCTYPE svg PUBLIC "-//W3C//DTD SVG 1.1//EN" "http://www.w3.org/Graphics/SVG/1.1/DTD/svg11.dtd"><svg t="1501466413465" class="icon" style="" viewBox="0 0 1024 1024" version="1.1" xmlns="http://www.w3.org/2000/svg" p-id="11089" xmlns:xlink="http://www.w3.org/1999/xlink" width="200" height="200"><defs><style type="text/css"></style></defs><path d="M566.603107 168.786171c-45.060265-15.309684-94.473675-23.77652-146.259108-23.77652-51.760874 0-101.170191 8.466835-146.259108 23.77652-46.77328 15.890922-88.904843 39.117926-124.224256 67.940368-36.011168 29.401634-65.040319 64.60439-84.812641 103.749946-18.906605 37.433564-29.345352 78.609359-29.345352 121.871675 0 29.200042 4.756327 57.384965 13.628392 84.061534 9.19236 27.662013 22.877033 53.905724 40.334637 78.117149 19.224854 26.620287 46.77021 47.235814 75.187423 68.489884l0.028653-0.027629c14.817474 11.076266 29.867238 22.326495 44.742017 35.230386 12.554944 10.786671 7.394411 22.066575-2.291183 33.289174-2.116197 2.434445-4.436032 4.842285-6.727215 7.219425-3.070942 3.15997-6.148024 6.321986-7.68196 8.639774l0 0.060375c-1.217734 1.855254-7.79964 9.509585-14.963807 17.832134l-0.056282 0c-7.482415 8.698103-15.71696 18.23941-17.922185 21.168112-5.217838 6.873548-8.581446 12.583596-10.089799 17.889439-1.303692 4.640694-1.215688 9.425673 0.378623 14.991436 0.665149 2.320858 1.796926 4.40738 3.275603 6.321986 1.651616 2.14485 3.885494 4.204765 6.40692 6.175653l0 0.058328c2.00261 1.564635 4.26207 2.784416 6.612605 3.597945l0.057305 0c2.696412 0.925069 5.597485 1.446955 8.439206 1.534959l0.056282 0c90.178859 3.27765 148.752906-45.031613 182.882214-73.216535l0-0.029676c6.175653-5.102205 11.628852-9.597589 16.731056-13.33675 11.250228-8.293897 22.760376-5.479805 34.361599-2.698458 4.003174 0.985444 8.058536 1.972934 11.252275 1.972934 51.785433 0 101.198843-8.465812 146.259108-23.775496 46.77021-15.863293 88.929402-39.117926 124.221186-67.940368 36.042891-29.374004 65.066925-64.575738 84.813664-103.721293 18.906605-37.462217 29.345352-78.638011 29.345352-121.901351 0-43.262316-10.438747-84.438111-29.345352-121.871675-19.74674-39.145555-48.770773-74.348312-84.813664-103.749946C655.533532 207.904097 613.373317 184.677093 566.603107 168.786171L566.603107 168.786171zM251.408425 555.718711l-0.057305-0.059352c-3.39226-3.391237-5.509481-8.148587-5.509481-13.367449 0-5.248537 2.116197-9.975189 5.509481-13.396101l0.028653-0.058328c3.422959-3.393283 8.175193-5.510504 13.396101-5.510504L397.609205 523.326976c5.220908 0 9.974166 2.117221 13.398148 5.510504l0.056282 0.058328c3.363607 3.420913 5.480828 8.147564 5.480828 13.396101 0 5.218862-2.089591 9.975189-5.509481 13.367449l-0.028653 0.059352c-3.393283 3.391237-8.148587 5.508457-13.398148 5.508457L264.775874 561.227168C259.527336 561.227168 254.802732 559.109947 251.408425 555.718711L251.408425 555.718711zM251.408425 405.748071l-0.057305-0.058328c-3.39226-3.391237-5.509481-8.147564-5.509481-13.396101 0-5.218862 2.116197-9.975189 5.509481-13.367449l0.028653-0.058328c3.422959-3.39226 8.175193-5.508457 13.396101-5.508457l323.892785 0c5.248537 0 9.975189 2.115174 13.396101 5.508457l0.057305 0.058328c3.394307 3.39226 5.509481 8.148587 5.509481 13.367449 0 5.247514-2.114151 10.003841-5.509481 13.396101l-0.057305 0.058328c-3.39226 3.39226-8.147564 5.479805-13.396101 5.479805L264.775874 411.227876C259.527336 411.227876 254.802732 409.140331 251.408425 405.748071L251.408425 405.748071zM553.699216 204.336852c42.768059 14.382569 81.219813 35.492352 113.317858 61.676711 31.374568 25.603121 56.68707 56.137555 73.998341 90.004897 16.789385 32.853245 26.097378 68.810179 26.097378 106.330724 0 37.551244-9.307993 73.478502-26.097378 106.3604-17.311271 33.869389-42.623773 64.400752-73.998341 89.975221-39.667441 32.362059-87.510076 55.762001-138.024563 69.446675-51.699476 14.007015-106.389052 17.891486-158.089551 10.904351l-11.220552-1.509377-6.350638 8.844435 0.028653 0.029676-0.028653 0-0.060375 0 0 0.027629c-1.158383 1.740644-31.517831 46.394656-90.411149 68.838831-1.27504 0.491187-3.306302 1.419326-5.538133 2.464121-9.858532 4.581342-22.848381 10.612709-31.229259 5.0449l-0.057305 0c-7.597025-5.074575-9.367345-12.814864-1.594311-24.531719 7.045463-10.640338 13.33675-21.399379 18.817578-31.692816 6.640234-12.467963 12.379958-24.762987 17.07898-35.723619l0-0.058328 7.334036-17.020652-16.930601-7.68503c-27.025517-12.235672-51.817156-27.315112-73.709769-44.683688-21.950941-17.398252-41.08779-37.230949-56.747445-58.921971-14.991436-20.789489-26.794249-43.37795-34.767851-67.300802l0 0.029676c-7.772011-23.313985-11.945053-47.730071-11.945053-72.840982 0-37.520545 9.305947-73.476455 26.095331-106.330724 17.3389-33.867342 42.655496-64.401776 74.000388-90.004897 32.127721-26.184359 70.578452-47.294143 113.319905-61.676711 41.086767-13.802354 86.148056-21.428032 133.35624-21.428032C467.549114 182.907797 512.610402 190.534498 553.699216 204.336852z" p-id="11090"></path><path d="M526.52839 747.298004c1.101077 4.669346 4.003174 8.962116 8.439206 11.715833 12.119015 7.597025 24.964578 14.382569 38.361703 20.268626 13.337773 5.827729 27.285436 10.8143 41.666982 14.846126 14.150278 3.943822 28.764114 6.989181 43.698245 9.018398 14.413268 1.972934 29.372981 2.986007 44.684712 2.986007 1.363044 0 5.771447-0.115634 10.726296-0.318248 3.479241-0.146333 7.713682-0.347924 12.700253-0.63752l6.001691-0.3776 4.088108 4.552689c12.151761 13.598716 33.927717 33.926694 65.012689 48.076972 21.050432 9.537214 46.394656 16.265452 75.855642 16.035208 2.840698 0 5.565762-0.433882 8.147564-1.218758 2.579755-0.781806 5.015224-1.942235 7.191796-3.421936l0.028653 0 0-0.027629c2.260483-1.537006 4.290723-3.361561 5.970992-5.452175l0.030699-0.027629c1.651616-2.030239 3.043313-4.437056 4.145413-7.077186 1.073448-2.665713 1.710968-5.304819 1.942235-7.856945 0.232291-2.667759 0.057305-5.450129-0.521886-8.176217l-0.174985-0.811482c-0.578168-2.378164-1.447978-4.699022-2.638083-6.815219-1.304715-2.348488-2.988054-4.552689-4.987594-6.523577-4.233418-4.14746-8.292873-8.758478-12.06171-13.659091-4.030803-5.188162-7.858992-10.844999-11.453866-16.672728-1.942235-3.15997-3.682879-6.148024-5.27719-8.989745-1.506307-2.694365-3.100618-5.682419-4.755304-8.930393l-5.362124-10.438747 10.031471-6.089695c16.761756-10.119475 32.216749-21.774933 46.046732-34.678824 13.861706-12.875239 26.098401-26.995841 36.509519-42.075281 13.075807-18.99154 23.309892-39.579437 30.182416-61.270459 6.641257-20.877493 10.178827-42.97272 10.178827-65.878406 0-30.18651-6.175653-59.095933-17.514909-85.74385-11.830443-27.836999-29.286-53.354162-51.14996-75.535347-21.659299-22.00927-47.725978-40.682561-76.92602-55.06513l-0.060375 0c-28.619828-14.063297-60.312644-24.038486-93.948719-28.909423l0 0c-5.189186-0.724501-10.178827 0.696872-14.033621 3.595898-3.856841 2.869351-6.612605 7.277754-7.365758 12.468986l0 0c-0.696872 5.189186 0.724501 10.177803 3.594875 14.033621 2.901073 3.829212 7.309476 6.611581 12.471033 7.336082 29.488615 4.263094 57.17928 12.903891 82.058924 25.053606 25.574469 12.468986 48.366567 28.764114 67.270103 47.960315 18.299785 18.557658 32.911574 39.811728 42.829458 62.923098l0 0.056282c9.628288 22.472827 14.905478 46.685275 14.905478 71.825862 0 18.904559-2.988054 37.319977-8.583492 54.917774-5.713119 18.035772-14.208607 35.0861-24.996301 50.77543-11.221576 16.295128-24.997324 31.256888-40.883129 44.480051-15.803941 13.162788-33.639145 24.531719-53.007261 33.750685l-16.181541 7.68503 6.785543 16.58677c2.667759 6.465249 5.858428 13.68672 9.540284 21.369703 3.101641 6.467295 6.55223 13.107529 10.265808 19.660782l18.323321 32.301683-34.156938-14.498202c-13.916964-5.915733-25.518187-13.368472-34.681894-20.675902-18.557658-14.699794-28.125571-29.258371-28.182876-29.344329l0.027629-0.027629-6.640234-9.94756-11.82942 1.77032-0.060375 0c-1.274016 0.173962-3.420913 0.404206-6.148024 0.665149l0 0.058328c-1.768273 0.144286-4.492314 0.347924-7.68196 0.521886-3.133364 0.173962-7.076162 0.349971-10.875698 0.493234-5.886057 0.232291-9.91686 0.345877-10.726296 0.345877-13.368472 0-26.676569-0.925069-39.811728-2.665713l-0.060375 0c-13.220093-1.769296-26.095331-4.437056-38.448684-7.886621-12.672624-3.53757-24.852014-7.886621-36.362162-12.961196-11.744485-5.16258-23.052019-11.164271-33.748638-17.83418-4.438079-2.753717-9.600659-3.449565-14.325263-2.348488-4.700045 1.073448-8.988722 3.973498-11.745509 8.408507C526.151813 737.409796 525.454942 742.572376 526.52839 747.298004z" p-id="11091"></path></svg>