<?xml version="1.0" standalone="no"?><!DOCTYPE svg PUBLIC "-//W3C//DTD SVG 1.1//EN" "http://www.w3.org/Graphics/SVG/1.1/DTD/svg11.dtd"><svg t="1501465882866" class="icon" style="" viewBox="0 0 1024 1024" version="1.1" xmlns="http://www.w3.org/2000/svg" p-id="4442" xmlns:xlink="http://www.w3.org/1999/xlink" width="200" height="200"><defs><style type="text/css"></style></defs><path d="M512 470.9c61.7 0 112-47.8 112-106.7 0-58.8-50.3-106.7-112-106.7s-112 47.8-112 106.7c0 58.9 50.3 106.7 112 106.7z m0-170.7c37.1 0 67.2 28.7 67.2 64s-30.1 64-67.2 64-67.2-28.7-67.2-64 30.1-64 67.2-64z" p-id="4443" fill="#ffffff"></path><path d="M825 334.6c-0.9 15-1.2 26.7-4.2 49.5l94.5-29.8v467.5l-268.8 74.8-313.1-86.9v-0.1l-0.2 0.1-0.2-0.1v0.2l-224 71.9V415.9l92.7-22.4c-2.2-12.8-3.1-26.5-3.1-40.1v-1.7L64 384.1v554.7l44.8-14.5L333 852.2 646.4 939 960 852.2V297.5l-135 37.1z" p-id="4444" fill="#ffffff"></path><path d="M394.3 667.1c1.7 2.5 3.5 4.5 4.9 6 41 49.5 82.4 82.5 84.2 83.9l28.8 22.8 28.7-23c1.8-1.4 43-34.7 84-84.1 1.4-1.5 3.2-3.5 4.9-6.1 58.6-76 131.4-186.2 147.8-281.6 3.2-21.7 3.3-34.9 3.3-36.4 0.5-71.3-28-138.3-80.2-188.4C649.9 111.7 583 85 512 85c-70.7 0-137.5 26.7-188.1 75.3-52.6 50.4-81.2 117.7-80.7 189.5 0 1.1 0.1 14.4 3.1 35 17.7 102.1 99.9 220.1 148 282.3zM512 127.6c123.7 0 224.9 98.6 224 221 0 0 0 11.1-2.7 29.4-14.8 85.8-84.7 192-140.7 264.5-0.5 0.9-1.4 1.7-1.8 2.1-39 47.3-78.9 79.4-78.9 79.4S472 692.4 433 645.1c-0.4-0.4-1.3-1.3-1.8-2.1-56-72.1-125.9-178.8-140.7-264.1-2.7-18.3-2.7-29.4-2.7-29.4C287.1 227 388.3 127.6 512 127.6z" p-id="4445" fill="#ffffff"></path></svg>