<?xml version="1.0" standalone="no"?><!DOCTYPE svg PUBLIC "-//W3C//DTD SVG 1.1//EN" "http://www.w3.org/Graphics/SVG/1.1/DTD/svg11.dtd"><svg t="1501469382219" class="icon" style="" viewBox="0 0 1024 1024" version="1.1" xmlns="http://www.w3.org/2000/svg" p-id="2922" xmlns:xlink="http://www.w3.org/1999/xlink" width="200" height="200"><defs><style type="text/css"></style></defs><path d="M511.663 473.098c61.621 0 111.8-47.734 111.8-106.472 0-58.738-50.179-106.47-111.8-106.47-61.62 0-111.798 47.732-111.798 106.47-0.001 58.738 50.176 106.472 111.798 106.472z m0-170.363c37.076 0 67.08 28.605 67.08 63.891 0 35.244-30.003 63.893-67.08 63.893-37.012 0-67.08-28.65-67.08-63.893 0-35.286 30.067-63.891 67.08-63.891z" p-id="2923"></path><path d="M824.066 337.018c-0.874 14.937-1.244 26.683-4.235 49.437l94.308-29.74v466.629l-268.32 74.634L333.242 811.2v-0.13l-0.218 0.09-0.24-0.09v0.175l-223.598 71.796V418.246l92.561-22.403c-2.227-12.797-3.123-26.42-3.123-40.048v-1.702L64.468 386.455V940.12l44.72-14.457 223.837-71.925 312.795 86.657 313.039-86.7v-553.71l-134.793 37.032z" p-id="2924"></path><path d="M394.186 668.965c1.747 2.488 3.472 4.497 4.87 5.94 40.963 49.435 82.232 82.32 84.023 83.717l28.758 22.797 28.627-22.971c1.79-1.399 42.927-34.675 83.804-83.938 1.398-1.484 3.19-3.534 4.914-6.07 58.454-75.9 131.123-185.866 147.545-281.07 3.164-21.703 3.253-34.848 3.253-36.288 0.547-71.143-27.906-138.002-80.093-188.05-50.53-48.475-117.39-75.159-188.225-75.159-70.551 0-137.236 26.684-187.765 75.16-52.472 50.307-81.099 117.52-80.551 189.183 0 1.136 0.086 14.326 3.123 34.982 17.644 101.884 99.657 219.665 147.717 281.767zM511.663 130.45c123.438 0 224.494 98.391 223.598 220.629 0 0 0 11.048-2.687 29.39-14.76 85.595-84.503 191.629-140.404 264.037-0.458 0.874-1.353 1.703-1.79 2.14-38.909 47.254-78.717 79.219-78.717 79.219s-39.807-31.53-78.716-78.782c-0.437-0.437-1.332-1.31-1.79-2.14-55.9-71.971-125.645-178.441-140.406-263.645-2.686-18.297-2.686-29.39-2.686-29.39-0.895-122.235 100.16-221.458 223.598-221.458z" p-id="2925"></path></svg>