<?xml version="1.0" standalone="no"?><!DOCTYPE svg PUBLIC "-//W3C//DTD SVG 1.1//EN" "http://www.w3.org/Graphics/SVG/1.1/DTD/svg11.dtd"><svg t="1501466003012" class="icon" style="" viewBox="0 0 1032 1024" version="1.1" xmlns="http://www.w3.org/2000/svg" p-id="8327" xmlns:xlink="http://www.w3.org/1999/xlink" width="201.5625" height="200"><defs><style type="text/css"></style></defs><path d="M586.628 196.691H523.85c-10.524 0-19.067 8.366-19.067 18.689v63.498c0 10.322 8.543 18.689 19.067 18.689h62.78c10.523 0 19.066-8.367 19.066-18.689V215.38c-0.012-10.323-8.543-18.689-19.067-18.689z m0 202.004H523.85c-10.524 0-19.067 8.454-19.067 18.89v62.969c0 10.436 8.543 18.89 19.067 18.89h62.78c10.523 0 19.066-8.454 19.066-18.89v-62.969c-0.012-10.436-8.543-18.89-19.067-18.89z m408.967 554.828h-61.82V667.92c0-51.447-46.324-93.152-98.504-93.152h-52.974V105.733c0-47.498-39.055-85.998-87.21-85.998H188.502c-48.153 0-87.209 38.513-87.209 85.998v847.79h-64.95C16.266 953.523 0 960.097 0 979.896v-0.417c0 19.787 16.266 24.797 36.342 24.797h959.253c20.064 0 36.33-8.152 36.33-27.951v1.98c0-19.786-16.266-24.783-36.33-24.783z m-289.693-13.477c0 7.925-6.511 14.335-14.524 14.335h-96.434c-8.013 0-14.512-6.41-14.512-14.335V816.192c0-7.925 6.512-14.335 14.512-14.335h96.421c8.026 0 14.525 6.41 14.525 14.335v123.854z m0-202.559c0 7.913-6.511 14.336-14.524 14.336h-96.434c-8.013 0-14.512-6.423-14.512-14.336v-96.749c0-7.924 6.512-15.117 14.512-15.117h96.421c8.026 0 14.525 6.41 14.525 14.335v97.531z m25.882-162.72H621.81c-52.18 0-91.323 41.705-91.323 93.152v285.604h-378.87V127.502c0-31.661 26.032-57.328 58.122-57.328h463.897c32.115 0 58.135 25.667 58.135 57.328v447.265z m151.49 365.28c0 7.924-6.512 14.334-14.537 14.334h-97.204c-8.038 0-14.537-6.41-14.537-14.335V816.192c0-7.925 6.512-14.335 14.537-14.335h97.204c8.038 0 14.537 6.41 14.537 14.335v123.854z m0-202.56c0 7.913-6.512 14.336-14.537 14.336h-97.204c-8.038 0-14.537-6.423-14.537-14.336v-97.531c0-7.925 6.512-14.335 14.537-14.335h97.204c8.038 0 14.537 6.41 14.537 14.335v97.531zM359.652 398.695h-63.234c-10.46 0-18.953 8.454-18.953 18.89v62.969c0 10.436 8.492 18.89 18.953 18.89h63.234c10.46 0 18.953-8.454 18.953-18.89v-62.969c0-10.436-8.492-18.89-18.953-18.89z m0-202.004h-63.234c-10.46 0-18.953 8.366-18.953 18.689v63.498c0 10.322 8.492 18.689 18.953 18.689h63.234c10.46 0 18.953-8.367 18.953-18.689V215.38c0-10.323-8.492-18.689-18.953-18.689z m0 404.108h-63.234c-10.46 0-18.953 8.367-18.953 18.689v63.498c0 10.323 8.492 18.689 18.953 18.689h63.234c10.46 0 18.953-8.366 18.953-18.689v-63.498c0-10.322-8.492-18.689-18.953-18.689z" p-id="8328"></path></svg>