<?xml version="1.0" standalone="no"?><!DOCTYPE svg PUBLIC "-//W3C//DTD SVG 1.1//EN" "http://www.w3.org/Graphics/SVG/1.1/DTD/svg11.dtd"><svg t="1501469681791" class="icon" style="" viewBox="0 0 1312 1024" version="1.1" xmlns="http://www.w3.org/2000/svg" p-id="4710" xmlns:xlink="http://www.w3.org/1999/xlink" width="41" height="32"><defs><style type="text/css"></style></defs><path d="M309.17 1009.81c0.27 0.18 0.63 0.090 0.9 0.27 2.19 1.11 4.47 1.92 6.93 1.92 1.32 0 2.64-0.18 3.96-0.54l326.040-88.98 326.040 88.98c1.32 0.36 2.64 0.54 3.96 0.54 2.46 0 4.74-0.81 6.9-1.95 0.3-0.15 0.63-0.090 0.9-0.27l270-165c5.73-3.51 8.43-10.44 6.6-16.89l-149.52-525c-1.23-4.41-4.44-8.010-8.7-9.78-1.692-0.702-3.657-1.11-5.718-1.11-2.701 0-5.238 0.7-7.439 1.93l-148.782 83.481c-7.2 4.050-9.78 13.2-5.73 20.43 4.050 7.26 13.17 9.81 20.46 5.73l132.27-74.25 141.21 495.78-240.45 146.97-57.12-456.93c-1.020-8.25-8.79-13.98-16.77-13.020-8.19 1.020-14.040 8.52-13.020 16.74l57.21 457.77-297.3-81.15v-81.9c0-8.28-6.72-15-15-15s-15 6.72-15 15v81.9l-297.33 81.15 57.21-457.77c1.020-8.22-4.8-15.72-13.020-16.74-8.16-0.96-15.72 4.77-16.77 13.020l-57.090 456.93-240.45-146.94 141.21-495.75 132.27 74.25c7.26 4.020 16.38 1.47 20.46-5.73 4.050-7.23 1.47-16.35-5.73-20.43l-148.89-83.55c-3.99-2.25-8.76-2.55-13.050-0.78-4.26 1.77-7.47 5.34-8.7 9.78l-149.52 525c-0.368 1.236-0.581 2.656-0.581 4.125 0 5.382 2.846 10.099 7.117 12.728l270.035 165.037z" p-id="4711"></path><path d="M636.83 753.040c2.661 2.454 6.229 3.96 10.148 3.96 0.007 0 0.015 0 0.022 0 3.599 0 7.199-1.29 10.079-3.87 9.99-9.090 244.92-224.67 244.92-446.13 0-143.010-111.99-255-255-255s-255 111.99-255 255c0 217.62 234.84 436.8 244.83 446.040zM647 82c128.25 0 225 96.72 225 225 0 182.91-179.79 370.11-224.91 414.21-45.030-44.61-225.090-234.27-225.090-414.21 0-128.28 96.75-225 225-225z" p-id="4712"></path><path d="M782 307c0-74.43-60.57-135-135-135s-135 60.57-135 135 60.57 135 135 135 135-60.57 135-135zM647 412c-57.9 0-105-47.1-105-105s47.1-105 105-105 105 47.1 105 105-47.1 105-105 105z" p-id="4713"></path></svg>