<?xml version="1.0" standalone="no"?><!DOCTYPE svg PUBLIC "-//W3C//DTD SVG 1.1//EN" "http://www.w3.org/Graphics/SVG/1.1/DTD/svg11.dtd"><svg t="1501466444522" class="icon" style="" viewBox="0 0 1024 1024" version="1.1" xmlns="http://www.w3.org/2000/svg" p-id="11755" xmlns:xlink="http://www.w3.org/1999/xlink" width="200" height="200"><defs><style type="text/css"></style></defs><path d="M513.031 590.188c155.156 0 280.875-124.781 280.875-278.719s-125.813-278.719-280.875-278.719-280.875 124.781-280.875 278.719c0 153.938 125.719 278.719 280.875 278.719zM513.031 78.687c128.906 0 233.719 104.438 233.719 232.781 0 128.344-104.906 232.781-233.719 232.781s-233.813-104.438-233.813-232.781c0-128.344 104.906-232.781 233.813-232.781z" p-id="11756" fill="#ffffff"></path><path d="M513.031 610.813c-205.594 0-372.844 170.531-372.844 379.875l47.906 0.188c0-181.781 145.781-330.094 324.938-330.094s324.938 137.156 324.938 329.344h47.906c0-216.563-167.25-379.313-372.844-379.313z" p-id="11757" fill="#ffffff"></path><path d="M633.6 444.3l-15.2-20c-63.7 46.2-154.6 46.4-218.5 0.5l-15.2 20.1c36.3 26.1 79.2 39.8 124.1 39.8C554.1 484.7 597.2 470.8 633.6 444.3z" p-id="11758" fill="#ffffff"></path></svg>