<?xml version="1.0" standalone="no"?><!DOCTYPE svg PUBLIC "-//W3C//DTD SVG 1.1//EN" "http://www.w3.org/Graphics/SVG/1.1/DTD/svg11.dtd"><svg t="1501486583773" class="icon" style="" viewBox="0 0 1024 1024" version="1.1" xmlns="http://www.w3.org/2000/svg" p-id="8862" xmlns:xlink="http://www.w3.org/1999/xlink" width="32" height="32"><defs><style type="text/css"></style></defs><path d="M757.687632 377.98475l-22.335704 0L735.351927 154.6318c0-49.342802-40.000016-89.340771-89.340771-89.340771L377.98782 65.291029c-49.342802 0-89.340771 39.998993-89.340771 89.340771l0 223.352951-22.335704 0c-49.342802 0-89.340771 39.998993-89.340771 89.340771l0 357.36513c0 49.342802 39.998993 89.340771 89.340771 89.340771l0.179079 0 0 22.341844c0 12.345166 10.000771 22.335704 22.335704 22.335704s22.335704-9.989515 22.335704-22.335704l0-22.341844 402.035516 0 0 22.341844c0 12.345166 10.000771 22.335704 22.335704 22.335704 12.334933 0 22.335704-9.989515 22.335704-22.335704l0-22.360264c49.254797-0.098237 89.162716-40.041972 89.162716-89.323375L847.031473 467.325521C847.029426 417.983743 807.02941 377.98475 757.687632 377.98475zM333.317435 154.6318c0-24.632004 20.038382-44.670385 44.670385-44.670385l268.023336 0c24.63098 0 44.670385 20.038382 44.670385 44.670385l0 223.352951L333.317435 377.98475 333.317435 154.6318zM802.359041 824.690652c0 24.632004-20.039405 44.670385-44.670385 44.670385L266.311345 869.361037c-24.632004 0-44.670385-20.038382-44.670385-44.670385L221.640959 467.325521c0-24.63098 20.038382-44.670385 44.670385-44.670385l491.376287 0c24.63098 0 44.670385 20.039405 44.670385 44.670385L802.358017 824.690652z" p-id="8863"></path><path d="M333.49549 512.00307c-12.334933 0-22.335704 9.989515-22.335704 22.335704l0 223.352951c0 12.345166 10.000771 22.335704 22.335704 22.335704 12.334933 0 22.335704-9.989515 22.335704-22.335704L355.831194 534.338774C355.831194 521.992585 345.830423 512.00307 333.49549 512.00307z" p-id="8864"></path><path d="M690.86062 512.00307c-12.334933 0-22.335704 9.989515-22.335704 22.335704l0 223.352951c0 12.345166 10.000771 22.335704 22.335704 22.335704s22.335704-9.989515 22.335704-22.335704L713.196325 534.338774C713.196325 521.992585 703.195553 512.00307 690.86062 512.00307z" p-id="8865"></path></svg>
