<?xml version="1.0" standalone="no"?><!DOCTYPE svg PUBLIC "-//W3C//DTD SVG 1.1//EN" "http://www.w3.org/Graphics/SVG/1.1/DTD/svg11.dtd"><svg t="1501479142256" class="icon" style="" viewBox="0 0 1024 1024" version="1.1" xmlns="http://www.w3.org/2000/svg" p-id="6185" xmlns:xlink="http://www.w3.org/1999/xlink" width="32" height="32"><defs><style type="text/css"></style></defs><path d="M752.192 592.448H552A40.128 40.128 0 0 0 512 632.448v160.128c0 22.016 18.048 40.064 40.064 40.064h200.192a40.128 40.128 0 0 0 40-40.064V632.448a40.192 40.192 0 0 0-40.064-40z m0 200.128H552V632.448h200.192v160.128zM812.224 232.128H211.776c-12.032 0-20.032 8-20.032 20.032s8 20.032 20.032 20.032h600.448c12.032 0 19.968-8 19.968-20.032 0.064-11.968-7.936-20.032-19.968-20.032z" fill="#515151" p-id="6186"></path><path d="M992.384 312.192v-16c0-9.984-1.984-22.016-6.016-36.032l-56.064-178.112C920.32 54.016 898.304 32 880.32 32H143.68c-17.984 0-40 22.016-50.048 50.048L37.632 260.16a148.48 148.48 0 0 0-6.016 40.064v9.984c0 66.048 32 124.096 80.064 160.128v421.568c0 56.064 44.032 100.096 96.064 100.096h608.448c52.032 0 96.064-44.032 96.064-100.096V472.32a199.808 199.808 0 0 0 80.128-160.128zM391.872 632.448v321.536H271.808V632.448h120.064z m480.384 261.44c0 34.048-26.048 60.032-56.064 60.032H431.936V632.448a40.128 40.128 0 0 0-40.064-40H271.808a40.128 40.128 0 0 0-40 40v321.536h-24.064c-30.016 0-56-26.048-56-60.032V496.384c24 9.984 52.032 16 80.064 16 54.016 0 104.064-22.016 140.096-58.048a198.336 198.336 0 0 0 280.192 0 198.336 198.336 0 0 0 140.096 58.048c28.032 0 56.064-6.016 80.064-16v397.504zM792.192 472.32c-42.048 0-82.048-16-112.064-46.016a39.488 39.488 0 0 0-28.032-12.032 39.68 39.68 0 0 0-28.032 12.032A157.376 157.376 0 0 1 512 472.32c-42.048 0-82.048-16-112.064-46.016a39.68 39.68 0 0 0-28.032-12.032 39.68 39.68 0 0 0-28.032 12.032 157.44 157.44 0 0 1-112.064 46.016A160.64 160.64 0 0 1 71.68 312.192v-8-6.016c0-4.032 0-12.032 4.032-24l56-180.096c4.032-12.032 9.984-20.032 14.016-22.016h730.56c4.032 1.984 10.048 9.984 14.016 22.016l56.064 178.112c4.032 9.984 4.032 18.048 4.032 22.016v16.064a158.08 158.08 0 0 1-158.208 162.048z" fill="#515151" p-id="6187"></path></svg>