<?xml version="1.0" standalone="no"?><!DOCTYPE svg PUBLIC "-//W3C//DTD SVG 1.1//EN" "http://www.w3.org/Graphics/SVG/1.1/DTD/svg11.dtd"><svg class="icon" width="200px" height="200.00px" viewBox="0 0 1024 1024" version="1.1" xmlns="http://www.w3.org/2000/svg"><path fill="#ffffff" d="M900.608 415.744c-13.824 0-25.088 11.264-25.088 25.088v385.536c0 22.016-17.92 39.424-39.424 39.424H183.296c-22.016 0-39.424-17.92-39.424-39.424V197.12c0-22.016 17.92-39.424 39.424-39.424h420.352c13.824 0 25.088-11.264 25.088-25.088s-11.264-25.088-25.088-25.088H179.2c-47.616 0-86.016 38.912-86.016 86.016v637.952c0 47.616 38.912 86.016 86.016 86.016h660.992c47.616 0 86.016-38.912 86.016-86.016V440.832c-0.512-13.824-11.776-25.088-25.6-25.088z"  /><path fill="#ffffff" d="M913.408 286.208c11.264-11.264 17.92-27.648 17.92-45.056 0-19.968-8.192-39.424-23.04-54.272l-38.912-38.912c-14.848-14.848-34.816-23.04-54.272-23.04-17.408 0-33.28 6.656-45.056 17.92l-412.672 412.672v0.512c0 0.512 0 1.024-0.512 1.536l-0.512 0.512c-0.512 0.512-0.512 0.512-0.512 1.024L312.32 714.24c-2.048 7.68 0 16.384 6.144 23.04 4.608 4.096 10.24 6.656 16.384 6.656 2.048 0 4.096 0 6.144-1.024l156.672-41.984h0.512c1.024 0 1.024-0.512 1.536-1.024l413.696-413.696zM368.128 687.616l24.064-90.112 65.536 65.536-89.6 24.576z m317.44-244.736l-190.976 190.976-71.68-71.68 190.976-190.976 149.504-149.504 11.264-11.264 31.232-31.232c7.68-7.68 22.016-6.656 30.72 2.048L875.52 220.16c4.608 4.608 7.68 10.752 7.68 16.896 0 5.632-2.048 10.24-5.632 13.312l-31.232 31.232 0.512 0.512-161.28 160.768z"  /></svg>