<?xml version="1.0" standalone="no"?><!DOCTYPE svg PUBLIC "-//W3C//DTD SVG 1.1//EN" "http://www.w3.org/Graphics/SVG/1.1/DTD/svg11.dtd"><svg t="1501211955576" class="icon" style="" viewBox="0 0 1024 1024" version="1.1" xmlns="http://www.w3.org/2000/svg" p-id="6837" xmlns:xlink="http://www.w3.org/1999/xlink" width="200" height="200"><defs><style type="text/css"></style></defs><path d="M512.000512 956.078051c-245.654886 0-445.50147-199.858864-445.50147-445.500447 0-245.648746 199.846584-445.50147 445.50147-445.50147 245.653863 0 445.500447 199.852724 445.500447 445.50147C957.499935 756.219187 757.653351 956.078051 512.000512 956.078051zM512.000512 116.172883c-217.474057 0-394.404722 176.930665-394.404722 394.404722 0 217.474057 176.930665 394.404722 394.404722 394.404722 217.473033 0 394.404722-176.930665 394.404722-394.404722C906.405233 293.102524 729.472522 116.172883 512.000512 116.172883z" p-id="6838" fill="#515151"></path><path d="M651.182434 699.321316c-6.760984 0-13.522991-2.674922-18.551518-7.977695L493.448994 544.43983c-4.491291-4.747117-6.998391-11.034311-6.998391-17.571191L486.450602 260.737396c0-14.109346 11.438517-25.547863 25.548886-25.547863 14.108323 0 25.548886 11.43954 25.548886 25.547863l0 255.952416 132.182508 139.512451c9.705036 10.241248 9.270131 26.414603-0.973164 36.114522C663.819243 697.000458 657.494187 699.321316 651.182434 699.321316z" p-id="6839" fill="#515151"></path></svg>