<?xml version="1.0" standalone="no"?><!DOCTYPE svg PUBLIC "-//W3C//DTD SVG 1.1//EN" "http://www.w3.org/Graphics/SVG/1.1/DTD/svg11.dtd"><svg t="1501210611962" class="icon" style="" viewBox="0 0 1024 1024" version="1.1" xmlns="http://www.w3.org/2000/svg" p-id="5616" xmlns:xlink="http://www.w3.org/1999/xlink" width="200" height="200"><defs><style type="text/css"></style></defs><path d="M864.711111 898.844444l-49.698133 0c2.548622-7.145244 4.187022-14.722844 4.187022-22.755556l0-182.044444 0-45.511111c0-12.583822-10.194489-22.755556-22.755556-22.755556s-22.755556 10.171733-22.755556 22.755556l0 45.511111 0 182.044444c0 19.751822-12.652089 22.482489-30.242133 22.755556L728.177778 898.844444 295.822222 898.844444l-15.268978 0C262.9632 898.571378 250.311111 895.840711 250.311111 876.088889l0-182.044444 0-45.511111c0-12.583822-10.194489-22.755556-22.755556-22.755556s-22.755556 10.171733-22.755556 22.755556l0 45.511111 0 182.044444c0 8.032711 1.6384 15.610311 4.187022 22.755556L159.288889 898.844444c-12.561067 0-22.755556 10.171733-22.755556 22.755556s10.194489 22.755556 22.755556 22.755556l113.777778 0 477.866667 0 113.777778 0c12.561067 0 22.755556-10.171733 22.755556-22.755556S877.272178 898.844444 864.711111 898.844444z" p-id="5617" fill="#ffffff"></path><path d="M523.377778 580.266667c25.122133 0 45.511111-20.388978 45.511111-45.511111l0-22.755556c0-25.122133-20.388978-45.511111-45.511111-45.511111l-22.755556 0c-25.122133 0-45.511111 20.388978-45.511111 45.511111l0 22.755556c0 25.122133 20.388978 45.511111 45.511111 45.511111L523.377778 580.266667z" p-id="5618" fill="#ffffff"></path><path d="M484.215467 188.097422l25.964089 0 0 8.897422-25.964089 0 0-8.897422Z" p-id="5619" fill="#ffffff"></path><path d="M112.480711 559.650133m-20.616533 0a0.906 0.906 0 1 0 41.233067 0 0.906 0.906 0 1 0-41.233067 0Z" p-id="5620" fill="#ffffff"></path><path d="M911.746844 559.650133m-20.616533 0a0.906 0.906 0 1 0 41.233067 0 0.906 0.906 0 1 0-41.233067 0Z" p-id="5621" fill="#ffffff"></path><path d="M32.472178 557.511111A1.016 1 0 1 1 32.472178 580.266667Z" p-id="5622" fill="#ffffff"></path><path d="M950.294756 557.511111A1.016 1 0 1 1 950.294756 580.266667Z" p-id="5623" fill="#ffffff"></path><path d="M512 79.644444C493.135644 79.644444 477.866667 94.936178 477.866667 113.777778l0 45.306311L102.1952 534.755556 68.266667 534.755556 55.591822 534.755556l0 45.511111 56.251733 0 18.500267-9.580089 115.894044-113.709511 0.022756 0.022756L508.836978 198.997333c1.479111-0.750933 2.366578-1.774933 2.707911-3.049244 0.182044-0.022756 0.250311-0.045511 0.455111-0.045511 0 0 0 0 0 0L512 79.644444C512.022756 79.644444 512 79.644444 512 79.644444z" p-id="5624" fill="#ffffff"></path><path d="M969.022578 534.755556l-13.243733 0-33.928533 0L546.178844 159.084089 546.178844 113.777778c0-18.8416-15.268978-34.133333-34.133333-34.133333 0 0 0 0-0.022756 0l0 116.258133c0 0 0 0 0 0 0.227556 0 0.295822 0.022756 0.477867 0.045511 0.341333 1.274311 1.206044 2.298311 2.707911 3.049244L777.784889 456.999822l0.022756-0.022756 115.894044 113.709511 18.500267 9.580089 56.820622 0L969.022578 534.755556z" p-id="5625" fill="#ffffff"></path></svg>