<?xml version="1.0" standalone="no"?><!DOCTYPE svg PUBLIC "-//W3C//DTD SVG 1.1//EN" "http://www.w3.org/Graphics/SVG/1.1/DTD/svg11.dtd"><svg class="icon" width="200px" height="200.00px" viewBox="0 0 1024 1024" version="1.1" xmlns="http://www.w3.org/2000/svg"><path fill="#ffffff" d="M981.509 556.119 829.385 556.119l0 257.25 84.513 0 0 68.595 50.708 0 0 68.603L85.67 950.567l0-68.603 50.708 0 0-68.595 101.417 0 0-257.25L51.864 556.119l253.541-154.356L119.474 401.763l388.756-240.09 0-34.304 33.806 0 0 34.304 388.763 240.09L760.232 401.763l221.275 154.356L981.509 556.119zM288.504 556.119l0 205.799 84.513 0L373.017 556.119 288.504 556.119zM508.232 556.119l-84.506 0 0 205.799 84.506 0L508.232 556.119zM643.455 556.119 558.94 556.119l0 205.799 84.514 0L643.454 556.119 643.455 556.119zM694.162 761.917l84.514 0L778.676 556.119l-84.514 0C694.162 556.119 694.162 761.917 694.162 761.917z" /></svg>