<?xml version="1.0" standalone="no"?><!DOCTYPE svg PUBLIC "-//W3C//DTD SVG 1.1//EN" "http://www.w3.org/Graphics/SVG/1.1/DTD/svg11.dtd"><svg class="icon" width="200px" height="200.00px" viewBox="0 0 1024 1024" version="1.1" xmlns="http://www.w3.org/2000/svg"><path fill="#ffffff" d="M949.774 366.552c-0.046-0.504-0.173-0.94-0.216-1.304-0.443-1.859-0.959-3.679-1.661-5.427L872.184 171.83c-13.111-38.989-50.705-62.897-94.768-62.99H246.41c-44.637 0-79.278 23.692-91.822 61.152l-81.33 191.809c-0.395 1.146-0.789 2.801-1.15 4.518-5.925 18.093-8.878 36.69-8.878 55.332 0.067 65.619 36.107 125.453 94.054 156.318 0 0 0 0.05 0.012 0.05 0.044 0 0.044 0 0.044 0.043 0 0 0.018 0 0.018 0.042 23.871 12.718 51.913 19.104 83.521 19.104 52.983-0.131 102.004-23.342 135.457-63.121 33.254 39.429 81.924 62.505 134.82 62.862 52.457-0.437 100.979-23.562 134.109-62.991 33.442 39.737 82.572 62.904 135.77 62.904 32.184-0.178 60.807-6.913 84.943-20.11 57.042-31.123 92.453-90.811 92.41-155.754 0.083-18.665-2.978-37.417-8.614-54.446zM835.03 528.359c-14.605 7.996-32.872 12.106-54.071 12.199-39.307 0-75.1-19.89-96.041-53.701-1.488-3.218-4.022-8.484-8.611-13.572-5.373-5.968-15.037-13.025-30.952-13.025-12.896 0-24.522 5.248-31.081 13.29-4.367 4.94-6.734 9.794-8.436 13.313-20.682 33.368-56.174 53.479-94.684 53.788-39.013-0.222-74.639-20.277-95.434-53.898-1.44-2.977-3.862-7.979-7.648-12.201-15.162-18.067-49.129-17.132-62.355-1.395-4.873 5.334-7.433 10.691-9.075 14.298-20.824 33.392-56.698 53.46-95.837 53.547-20.831 0-38.71-3.931-53.068-11.59h-0.111c-36.918-19.601-68.102-66.007-68.128-107.748 0-12.329 2.029-24.781 6.19-36.895 0.306-0.868 0.541-1.833 0.786-2.823l80.105-197.214c1.638-4.847 6.603-19.538 31.5-19.538h547.68c10.269 0.592 27.886 2.398 34.138 20.806l75.014 194.679a29.78 29.78 0 0 0 0.959 3.69c4.201 12.156 6.201 24.511 6.201 36.741 0.097 41.243-30.717 87.421-67.041 107.249z m28.325 95.203c-17.835 0-28.16 14.42-28.16 32.22l0.095 179.881c0 10.01-8.17 18.144-18.187 18.181l-623.719 0.388c-10.01 0-18.137-8.085-18.137-18.003L175 659.321c-0.02-17.743-10.359-32.127-28.152-32.127h-0.062c-17.793 0.042-28.107 14.464-28.084 32.298l0.216 172.665c0 45.422 37.097 82.402 82.685 82.402l607.379-0.394c45.544-0.088 82.617-37.154 82.617-82.617l-0.093-175.771c0.001-17.825-10.315-32.215-28.151-32.215zM763.341 389.79H246.932c-17.836 0-32.287-10.337-32.287-28.111 0-17.741 14.471-28.103 32.287-28.103h516.409c17.829 0 32.255 10.361 32.255 28.103 0.006 17.767-14.42 28.111-32.255 28.111z" /></svg>