<?xml version="1.0" standalone="no"?><!DOCTYPE svg PUBLIC "-//W3C//DTD SVG 1.1//EN" "http://www.w3.org/Graphics/SVG/1.1/DTD/svg11.dtd"><svg t="1501692892264" class="icon" style="" viewBox="0 0 1098 1024" version="1.1" xmlns="http://www.w3.org/2000/svg" p-id="9476" xmlns:xlink="http://www.w3.org/1999/xlink" width="34.3125" height="32"><defs><style type="text/css"></style></defs><path d="M548.571429 1024C532.918857 1024 518.217143 1017.965714 507.099429 1006.957714L139.995429 607.963429 140.946286 607.085714C90.550857 568.32 0 441.526857 0 318.244571 0 124.928 124.781714 0 317.952 0 407.844571 0 489.764571 51.492571 548.571429 102.144 607.378286 51.492571 689.261714 0 779.081143 0 972.288 0 1097.142857 124.928 1097.142857 318.244571 1097.142857 471.661714 971.190857 594.944 954.294857 610.742857L591.177143 1005.787429C578.889143 1017.965714 564.150857 1024 548.571429 1024ZM179.309714 550.802286 180.370286 550.802286 548.608 951.076571 907.337143 561.042286C908.214857 560.237714 1028.571429 449.974857 1028.571429 318.244571 1028.571429 161.718857 935.314286 68.278857 779.081143 68.278857 694.966857 68.278857 613.376 133.851429 572.233143 172.909714L548.571429 195.437714 524.909714 172.909714C483.766857 133.851429 402.139429 68.278857 317.952 68.278857 161.792 68.278857 68.571429 161.718857 68.571429 318.244571 68.571429 427.849143 151.625143 522.349714 179.309714 550.802286Z" p-id="9477" fill="#d81e06"></path></svg>