<?xml version="1.0" standalone="no"?><!DOCTYPE svg PUBLIC "-//W3C//DTD SVG 1.1//EN" "http://www.w3.org/Graphics/SVG/1.1/DTD/svg11.dtd"><svg t="1501694938846" class="icon" style="" viewBox="0 0 1024 1024" version="1.1" xmlns="http://www.w3.org/2000/svg" p-id="11586" xmlns:xlink="http://www.w3.org/1999/xlink" width="32" height="32"><defs><style type="text/css"></style></defs><path d="M315.934532 174.292582c27.392884 0 76.917834 12.736069 157.238161 89.557712l39.816844 38.08848 39.223327-38.687114c55.768141-55.016011 115.110691-89.213881 154.881486-89.213881 53.614082 0 95.881744 17.809621 137.087215 57.740052 38.818097 37.624922 60.217477 87.642083 60.217477 140.861168 0.030699 53.234435-21.367657 103.296621-60.592007 141.325749-3.199878 3.157923-171.988096 180.013887-313.414129 328.253092-6.649444 6.135744-14.281261 7.079232-18.307971 7.079232-3.996011 0-11.518335-0.89744-18.152429-6.869455-34.478256-37.236066-284.258089-306.971393-313.304635-335.152223-38.865169-37.669948-60.263525-87.732134-60.263525-140.966569 0.01535-53.204759 21.399379-103.22192 60.278875-140.876518C218.461547 188.734502 262.71033 174.292582 315.934532 174.292582L315.934532 174.292582zM315.934532 120.025631c-66.818825 0-125.724423 19.411095-174.781722 67.004043-102.219079 99.016131-102.219079 259.588223 0 358.663706 29.187763 28.331255 312.462454 334.37451 312.462454 334.37451 16.138562 15.684214 37.335327 23.511483 58.453297 23.511483 21.13332 0 42.283012-7.827269 58.406225-23.511483 0 0 309.85507-324.781014 313.149093-328.043315 102.219079-99.076506 102.219079-259.648598 0-358.664729-50.710962-49.193399-107.416452-73.603345-176.529529-73.603345-66.039066 0-139.694599 51.139727-194.71368 105.406678C455.629131 170.895205 384.252501 120.025631 315.934532 120.025631L315.934532 120.025631 315.934532 120.025631z" p-id="11587" fill="#ffffff"></path></svg>