<svg width="20" height="22" viewBox="0 0 20 22" xmlns="http://www.w3.org/2000/svg"><title>bbs</title><g fill-rule="nonzero" fill="#FFF"><path d="M15.483 18.596l-.342 1.277-5.899-1.581zM3.504 18.386l.826 3.081 7.766-1.989zM1.38 6.69l.246 5.289L.15 7.018zM16.668 15.022l.785 2.968-.781.201zM15.337.467a4.582 4.582 0 0 0-4.582 4.582c0 3.182 2.789 3.388 4.582 8.018 1.79-4.582 4.582-4.557 4.582-8.018A4.581 4.581 0 0 0 15.337.467zm.036 6.673a2.136 2.136 0 1 1 0-4.272 2.136 2.136 0 0 1 0 4.272zM5.944 10.987h5.835a.583.583 0 1 1 0 1.166H5.944a.583.583 0 1 1 0-1.166zM5.944 13.904h4.901a.583.583 0 1 1 0 1.166H5.944a.583.583 0 1 1 0-1.166zM5.944 5.152h2.917a.583.583 0 1 1 0 1.166H5.944a.583.583 0 1 1 0-1.166zM5.944 8.069h4.084a.584.584 0 1 1 0 1.166H5.944a.583.583 0 1 1 0-1.166z"/><path d="M14.696 13.859v2.962H3.026V2.818h6.418a.583.583 0 1 0 0-1.166H3.026c-.644 0-1.167.523-1.167 1.167v14.003c0 .645.523 1.167 1.167 1.167h11.669c.645 0 1.167-.522 1.167-1.167v-2.064l-1.166-.899z"/></g></svg>