<svg class="icon" width="48" height="48" viewBox="0 0 1024 1024" xmlns="http://www.w3.org/2000/svg"><path fill="#9ea3ab" d="M996.426 867.116L716.738 587.444c90.61-148.197 71.79-344.428-56.46-472.672-150.307-150.3-394.002-150.3-544.31 0s-150.307 393.983 0 544.282c128.25 128.244 324.493 147.064 472.697 56.457l279.687 279.672c35.459 35.457 92.752 35.41 128.118.046 35.295-35.293 35.346-92.722-.044-128.113zM596.243 595.02c-114.941 114.936-301.298 114.936-416.238 0-114.941-114.935-114.941-301.281 0-416.216 114.94-114.934 301.296-114.934 416.238 0 114.94 114.935 114.94 301.281 0 416.216z"/></svg>